<?xml version="1.0" standalone="no"?><!DOCTYPE svg PUBLIC "-//W3C//DTD SVG 1.1//EN" "http://www.w3.org/Graphics/SVG/1.1/DTD/svg11.dtd"><svg t="1625554873582" class="icon" viewBox="0 0 1025 1024" version="1.1" xmlns="http://www.w3.org/2000/svg" p-id="1210" xmlns:xlink="http://www.w3.org/1999/xlink" width="200.1953125" height="200"><defs><style type="text/css"></style></defs><path d="M365.062518 704 217.862518 704C198.662518 704 173.062518 716.8 166.662518 729.6L6.662517 934.4C-6.137483 947.2 0.262517 960 19.462517 960L1005.062515 960C1024.262515 960 1030.662515 947.2 1017.862515 934.4L857.862515 729.6C845.062515 716.8 825.862515 704 806.662515 704L659.462515 704 608.262518 768 806.662515 768 909.062515 896 115.462518 896 217.862518 768 416.262518 768 365.062518 704 365.062518 704 365.062518 704 365.062518 704Z" p-id="1211"></path><path d="M512.0032 64C371.2032 64 256.0032 179.2 256.0032 320 256.0032 364.8 268.8032 409.6 288.0032 448L448.0032 723.2C486.4032 787.2 544.0032 787.2 576.0032 723.2L723.2032 460.8C748.8032 422.4 768.0032 371.2 768.0032 320 768.0032 179.2 652.8032 64 512.0032 64L512.0032 64ZM672.0032 416 544.0032 646.4C518.4032 691.2 505.6032 691.2 480.0032 646.4L345.6032 409.6C326.4032 384 320.0032 352 320.0032 313.6 320.0032 211.2 403.2032 128 512.0032 128 620.8032 128 704.0032 211.2 704.0032 313.6 704.0032 352 691.2032 384 672.0032 416L672.0032 416Z" p-id="1212"></path></svg>