<?xml version="1.0" standalone="no"?><!DOCTYPE svg PUBLIC "-//W3C//DTD SVG 1.1//EN" "http://www.w3.org/Graphics/SVG/1.1/DTD/svg11.dtd"><svg t="1622515263350" class="icon" viewBox="0 0 1024 1024" version="1.1" xmlns="http://www.w3.org/2000/svg" p-id="904" xmlns:xlink="http://www.w3.org/1999/xlink" width="200" height="200"><defs><style type="text/css"></style></defs><path d="M812.54 442.45c-15.84 5.33-29.91 14.27-47.7 28.54-4.9 3.94-32.56 27.39-41.03 34.05-17.48 13.8-33.62 24.34-50.44 32.25-10.8-11.28-24.5-19.05-40.61-23.19-18.56-4.78-31.78-4.78-68.17-2.56-27.57 1.7-41.04 1.74-55.73-0.51-9.87-1.51-18.64-4.06-26.66-7.89-13.67-6.52-25.54-13.26-38.43-21.6-5.34-3.43-26.91-18.06-32.78-21.8C372.74 435.3 338.28 425 281.68 425c-77.03 0-146.37 32.84-206.19 96.61l-10.98 11.71V768.1l0.1 3.55c1.84 32.01 27.77 57 59.13 57h493.32l7.6-0.47C771.01 817.85 879.7 724.84 949.8 555.47c0 0 8.31-23.63 8.31-29.84 0-6.21 6.73-134.51-145.57-83.18zM615.09 747.98l-471.61-0.04V566.36l5.54-5.23c40.81-37.36 84.62-55.38 132.65-55.38 41.68 0 61.64 5.99 87.48 22.46 4.72 3.03 26.08 17.5 32.43 21.6 15.55 10.05 30.33 18.46 47.29 26.54 15.32 7.2 31.59 12.1 48.28 14.53 21.78 3.33 39.23 3.27 72.12 1.25 43.22-2.64 47.34-1.59 49.85 6.54 7.56 24.38-78.42 58.47-162.91 36.59-63.14-16.35-103.86-37.06-122.19-59.34l-60.47 51.93 3.71 4.32c31.67 35.69 84.84 61.99 159.54 81.34 116.68 30.21 252.22-13.81 261.82-99.36 25.57-11.02 48.98-25.9 73.44-45.21 9.81-7.73 37.81-31.46 41.56-34.47 11.15-8.94 18.51-13.62 23.59-15.34 2.85-0.94 3.75-0.84 7.51 1.48 6.28 3.87 14.11 11.67 23.45 23.92-59.76 131.96-143.29 197.86-253.08 203.45z m-146.68-362.8h314.15c24.79 0 44.88-20.09 44.88-44.88 0-24.79-20.09-44.88-44.88-44.88H468.41c-24.79 0-44.88 20.09-44.88 44.88 0.01 24.79 20.1 44.88 44.88 44.88z m0-134.63h179.51c24.79 0 44.88-20.09 44.88-44.88s-20.09-44.88-44.88-44.88H468.41c-24.79 0-44.88 20.09-44.88 44.88s20.1 44.88 44.88 44.88z" p-id="905"></path></svg>