<?xml version="1.0" standalone="no"?><!DOCTYPE svg PUBLIC "-//W3C//DTD SVG 1.1//EN" "http://www.w3.org/Graphics/SVG/1.1/DTD/svg11.dtd"><svg t="1622515308587" class="icon" viewBox="0 0 1024 1024" version="1.1" xmlns="http://www.w3.org/2000/svg" p-id="1668" xmlns:xlink="http://www.w3.org/1999/xlink" width="200" height="200"><defs><style type="text/css"></style></defs><path d="M438.647551 950.74155c10.67692-7.459944 21.134841-14.845889 31.227765-22.159833 10.896918 22.086834 24.426817 42.56368 40.296698 61.066541-9.726927 7.020947-19.599853 14.041895-29.765777 21.135841a72.914452 72.914452 0 0 1-83.518373 0C118.762953 817.053554 0.066844 648.992816 0.066844 448.75432V227.598981a73.133451 73.133451 0 0 1 73.132451-73.133451c163.088775 0 314.181641-133.614997 316.447624-135.662981a73.059451 73.059451 0 0 1 97.999264 0.146999c1.462989 1.31599 154.165842 135.515982 316.447623 135.515982a73.133451 73.133451 0 0 1 73.134451 73.133451v124.473065c0 32.909753-3.290975 64.942512-9.872926 96.389276A287.852838 287.852838 0 0 0 798.097851 422.13452c4.168969-23.621823 5.996955-46.878648 5.996955-70.061474V227.598981c-194.973536 0-365.447256-154.45884-365.447255-154.45884s-170.547719 154.45884-365.521255 154.45884V448.75432c0.072999 147.436893 73.20645 298.383759 365.521255 501.98723z m550.693864-265.328007c8.409937 0 14.919888 6.801949 15.357885 15.284885v41.466689a14.919888 14.919888 0 0 1-14.845889 15.138886l-62.967527 10.091924a208.649433 208.649433 0 0 1-27.059796 65.819506l37.517718 52.144608c5.849956 5.850956 5.849956 15.431884 0 21.35484l-29.399779 29.32678a15.065887 15.065887 0 0 1-21.35484 0l-51.92461-37.37072a208.722433 208.722433 0 0 1-65.673507 27.570793l-10.239923 63.260525a15.065887 15.065887 0 0 1-15.210886 14.991887h-41.393689a15.065887 15.065887 0 0 1-15.138886-14.991887l-10.091924-62.967527a210.112422 210.112422 0 0 1-65.819506-27.059797l-52.144609 37.517718a15.065887 15.065887 0 0 1-21.354839 0l-29.32678-29.399779a15.065887 15.065887 0 0 1 0-21.354839l36.932723-51.92461a208.722433 208.722433 0 0 1-27.571793-65.673507l-63.552523-10.239923a15.211886 15.211886 0 0 1-15.211886-15.283886v-41.466688c0-8.336937 6.801949-15.138886 15.138887-15.138887l63.259524-10.238923c5.33996-23.767822 14.553891-45.927655 27.059797-65.819505l-37.517718-52.144609a15.065887 15.065887 0 0 1 0-21.354839l29.399779-29.32578c5.850956-5.923956 15.431884-5.923956 21.35484 0l51.779611 37.370719c19.744852-12.724904 42.050684-22.085834 65.673507-27.570793l10.237923-63.699521c0-8.336937 6.874948-14.992887 15.211886-14.992888h41.466688c8.336937 0 15.138886 6.65595 15.138887 14.992888l10.238923 63.406523c23.767822 5.33896 45.927655 14.553891 65.819505 27.059797l52.144609-37.517718c5.849956-5.849956 15.357885-5.849956 21.354839 0l29.32578 29.399779c5.850956 5.849956 5.850956 15.429884 0 21.35484l-37.370719 51.92461c12.724904 19.745852 22.085834 42.051684 27.570793 65.673507l63.260525 10.238923zM722.112422 852.377289a130.46902 130.46902 0 1 0 0-261.01304 130.46902 130.46902 0 0 0 0 261.01304z" p-id="1669"></path></svg>