<?xml version="1.0" standalone="no"?><!DOCTYPE svg PUBLIC "-//W3C//DTD SVG 1.1//EN" "http://www.w3.org/Graphics/SVG/1.1/DTD/svg11.dtd"><svg t="1620614631139" class="icon" viewBox="0 0 1024 1024" version="1.1" xmlns="http://www.w3.org/2000/svg" p-id="10407" xmlns:xlink="http://www.w3.org/1999/xlink" width="48" height="48"><defs><style type="text/css"></style></defs><path d="M347.012 540.059c17.041 17.04 18.59 43.707 4.648 62.499l-4.648 5.383-76.127 76.127L890.914 684c26.51 0 48 21.49 48 48 0 24.3-18.058 44.383-41.487 47.562l-6.513 0.438-620.034 0.068 76.132 76.133c18.745 18.745 18.745 49.137 0 67.882-17.041 17.041-43.707 18.59-62.499 4.648l-5.383-4.648-158.071-158.071a48.918 48.918 0 0 1-1.043-1.076l-0.328-0.352a48.644 48.644 0 0 1-1.7-1.946l-0.178-0.215a48.083 48.083 0 0 1-2.823-3.822l-0.215-0.326a47.733 47.733 0 0 1-1.577-2.592l-0.101-0.18a47.619 47.619 0 0 1-1.505-2.92l-0.139-0.297a47.66 47.66 0 0 1-1.131-2.644l-0.118-0.303a47.743 47.743 0 0 1-0.952-2.713l-0.2-0.646a47.883 47.883 0 0 1-0.928-3.57l-0.032-0.146a48.078 48.078 0 0 1-0.903-5.962l-0.03-0.36a48.247 48.247 0 0 1 0-7.74l0.03-0.363a48.123 48.123 0 0 1 0.483-3.778l0.011-0.067 0.05-0.287a48.117 48.117 0 0 1 0.359-1.829l0.032-0.146c0.038-0.175 0.078-0.35 0.118-0.526l0.067-0.284a48.02 48.02 0 0 1 1.167-4.093l0.089-0.263a47.764 47.764 0 0 1 0.48-1.345l0.159-0.418 0.117-0.303a47.739 47.739 0 0 1 0.538-1.311l0.159-0.367a47.571 47.571 0 0 1 1.046-2.234l0.312-0.611a47.627 47.627 0 0 1 0.725-1.345l0.097-0.173a47.59 47.59 0 0 1 1.556-2.56l0.228-0.346 0.193-0.29a47.841 47.841 0 0 1 0.826-1.184l0.413-0.566a48.421 48.421 0 0 1 4.648-5.383l158.07-158.071c18.746-18.745 49.138-18.745 67.883 0z m351.89-449c18.745-18.745 49.137-18.745 67.882 0l158.071 158.07a48.421 48.421 0 0 1 4.648 5.384l0.413 0.566a47.82 47.82 0 0 1 0.826 1.185l0.193 0.29 0.228 0.345a47.752 47.752 0 0 1 1.556 2.56l0.097 0.173a47.57 47.57 0 0 1 0.725 1.345l0.312 0.611a47.635 47.635 0 0 1 1.046 2.234l0.159 0.367a47.654 47.654 0 0 1 0.538 1.311l0.117 0.303 0.159 0.418a47.736 47.736 0 0 1 0.48 1.345l0.089 0.263a47.864 47.864 0 0 1 1.167 4.093l0.067 0.284c0.04 0.175 0.08 0.35 0.118 0.526l0.032 0.146a48.089 48.089 0 0 1 0.359 1.83l0.05 0.286 0.01 0.067a48.16 48.16 0 0 1 0.484 3.778l0.03 0.362a48.319 48.319 0 0 1 0 7.742l-0.03 0.36a48.2 48.2 0 0 1-0.903 5.96l-0.032 0.147a48.05 48.05 0 0 1-0.929 3.57l-0.2 0.646a47.83 47.83 0 0 1-0.95 2.713l-0.119 0.303a47.673 47.673 0 0 1-1.131 2.644l-0.139 0.297a47.6 47.6 0 0 1-1.505 2.92l-0.101 0.18a47.66 47.66 0 0 1-1.577 2.592l-0.215 0.326a47.73 47.73 0 0 1-2.823 3.822l-0.177 0.215a48.248 48.248 0 0 1-1.7 1.946l-0.329 0.352a48.74 48.74 0 0 1-1.043 1.076l-158.07 158.071-5.384 4.648c-18.792 13.942-45.458 12.393-62.499-4.648-18.745-18.745-18.745-49.137 0-67.882l76.132-76.133L155 331l-6.513-0.438C125.057 327.383 107 307.3 107 283c0-26.51 21.49-48 48-48l620.029 0.068-76.127-76.127-4.648-5.383c-13.942-18.792-12.393-45.458 4.648-62.5z" fill="#2c2c2c" p-id="10408"></path></svg>