<?xml version="1.0" standalone="no"?><!DOCTYPE svg PUBLIC "-//W3C//DTD SVG 1.1//EN" "http://www.w3.org/Graphics/SVG/1.1/DTD/svg11.dtd"><svg t="1620613875770" class="icon" viewBox="0 0 1024 1024" version="1.1" xmlns="http://www.w3.org/2000/svg" p-id="4004" xmlns:xlink="http://www.w3.org/1999/xlink" width="48" height="48"><defs><style type="text/css"></style></defs><path d="M452.3 452.3H233.6c-64 0-116-52-116-116V233.6c0-64 52-116 116-116h102.7c64 0 116 52 116 116v218.7zM233.6 181.6c-28.7 0-52 23.3-52 52v102.7c0 28.7 23.3 52 52 52h154.7V233.6c0-28.7-23.3-52-52-52H233.6zM729.7 452.3H511V233.6c0-64 52-116 116-116h102.7c64 0 116 52 116 116v102.7c0 63.9-52.1 116-116 116z m-154.7-64h154.7c28.7 0 52-23.3 52-52V233.6c0-28.7-23.3-52-52-52H627c-28.7 0-52 23.3-52 52v154.7zM336.3 852.3H233.6c-64 0-116-52-116-116V633.6c0-64 52-116 116-116h218.7v218.7c0 63.9-52.1 116-116 116zM233.6 581.6c-28.7 0-52 23.3-52 52v102.7c0 28.7 23.3 52 52 52h102.7c28.7 0 52-23.3 52-52V581.6H233.6zM729.7 852.3H627c-64 0-116-52-116-116V517.6h218.7c64 0 116 52 116 116v102.7c0 63.9-52.1 116-116 116zM575 581.6v154.7c0 28.7 23.3 52 52 52h102.7c28.7 0 52-23.3 52-52V633.6c0-28.7-23.3-52-52-52H575z" p-id="4005"></path></svg>