<?xml version="1.0" standalone="no"?><!DOCTYPE svg PUBLIC "-//W3C//DTD SVG 1.1//EN" "http://www.w3.org/Graphics/SVG/1.1/DTD/svg11.dtd"><svg t="1620613849615" class="icon" viewBox="0 0 1170 1024" version="1.1" xmlns="http://www.w3.org/2000/svg" p-id="3612" xmlns:xlink="http://www.w3.org/1999/xlink" width="54.84375" height="48"><defs><style type="text/css"></style></defs><path d="M159.134476 514.925714c0-26.672762-15.140571-49.664-37.205333-61.683809C147.919238 221.135238 346.209524 40.374857 587.776 40.374857c201.776762 0 373.394286 126.122667 439.710476 302.908953h42.886095C1002.276571 143.847619 812.373333 0 587.776 0 326.582857 0 112.176762 194.438095 82.090667 444.830476c-36.766476 2.852571-65.828571 32.963048-65.828572 70.119619 0 39.009524 31.963429 70.680381 71.436191 70.680381 39.448381 0 71.43619-31.670857 71.43619-70.704762z m-75.946666 37.229715a33.475048 33.475048 0 1 1 0.02438-66.974477 33.475048 33.475048 0 0 1-0.02438 66.974477zM1083.245714 451.779048a70.948571 70.948571 0 0 0-36.498285 131.779047c-34.03581 224.353524-226.182095 396.483048-459.044572 396.483048-192.292571 0-356.937143-117.272381-427.739428-284.452572H116.638476c73.094095 190.049524 256.073143 325.095619 471.04 325.095619 251.733333 0 459.629714-185.051429 498.346667-426.959238a70.802286 70.802286 0 0 0 68.022857-70.826666 70.948571 70.948571 0 0 0-70.802286-71.119238z m3.852191 100.400762a33.475048 33.475048 0 0 1 0-66.925715 33.475048 33.475048 0 0 1 0 66.925715z m-265.606095-36.717715c6.582857 2.389333 13.482667 3.608381 20.455619 3.608381a61.19619 61.19619 0 0 0 57.465904-41.276952 62.805333 62.805333 0 0 0-2.243047-47.591619 60.781714 60.781714 0 0 0-34.450286-32.060953c-26.014476-9.606095-53.394286 0.682667-68.973714 22.211048l-338.944-124.513524c1.316571-12.775619 0.463238-25.624381-5.046857-37.546666a69.412571 69.412571 0 0 0-39.350858-36.498286 67.584 67.584 0 0 0-53.150476 2.56 69.997714 69.997714 0 0 0-35.718095 40.228571c-12.970667 36.864 5.778286 77.628952 41.886476 90.940953 6.217143 2.267429 12.580571 2.925714 18.895238 3.364571l55.954286 316.562286a86.308571 86.308571 0 0 0-34.718476 43.836952c-15.993905 45.446095 7.216762 95.744 51.687619 112.079238a83.21219 83.21219 0 0 0 65.511619-3.169524 86.25981 86.25981 0 0 0 44.129524-49.688381 88.185905 88.185905 0 0 0-0.341334-59.001904L809.20381 507.855238c3.998476 2.681905 7.606857 5.87581 12.31238 7.606857z m15.603809-69.315047a16.871619 16.871619 0 0 1 21.382095-10.093715c4.193524 1.536 7.582476 4.608 9.508572 8.630857 1.901714 3.998476 2.121143 8.557714 0.609524 12.702477v0.048762a16.774095 16.774095 0 0 1-21.406477 10.118095 16.847238 16.847238 0 0 1-10.118095-21.406476z m-420.766476-144.822858c-4.632381 13.06819-19.18781 19.748571-32.085333 15.189334a25.112381 25.112381 0 0 1 8.411428-48.761905c2.852571 0 5.753905 0.512 8.533333 1.536 6.290286 2.194286 11.385905 6.826667 14.214096 12.897524 2.852571 6.022095 3.193905 12.824381 0.926476 19.163428z m116.150857 457.386667v0.048762c-3.82781 10.48381-11.459048 18.895238-21.552762 23.649524a41.691429 41.691429 0 0 1-31.939048 1.560381 41.935238 41.935238 0 0 1-25.258666-53.467429 41.984 41.984 0 0 1 53.540571-25.283047c10.48381 3.82781 18.870857 11.459048 23.649524 21.552762 4.778667 10.093714 5.315048 21.455238 1.560381 31.939047z m4.705524-72.655238a86.77181 86.77181 0 0 0-27.989334-16.993524 85.333333 85.333333 0 0 0-34.864761-4.973714l-56.515048-316.757333c5.461333-3.462095 10.24-7.777524 14.628571-12.678096l350.841905 127.73181c0.341333 3.608381 1.706667 6.92419 2.633143 10.410667l-248.734476 213.235809z" p-id="3613"></path></svg>