<?xml version="1.0" standalone="no"?><!DOCTYPE svg PUBLIC "-//W3C//DTD SVG 1.1//EN" "http://www.w3.org/Graphics/SVG/1.1/DTD/svg11.dtd"><svg t="1620696923616" class="icon" viewBox="0 0 1024 1024" version="1.1" xmlns="http://www.w3.org/2000/svg" p-id="2573" xmlns:xlink="http://www.w3.org/1999/xlink" width="48" height="48"><defs><style type="text/css"></style></defs><path d="M421.790476 568.07619c-14.628571 4.87619-29.257143 14.628571-29.257143 14.628572l-43.885714 31.695238 156.038095 92.647619 153.6-92.647619-48.761904-34.133333s-4.87619-4.87619-12.190477-7.314286c-2.438095-2.438095-2.438095-2.438095-7.314285-4.876191h-2.438096c-4.87619-2.438095-12.190476-2.438095-17.066666-4.87619-4.87619-2.438095-34.133333 41.447619-65.828572 41.447619-36.571429 0-73.142857-39.009524-82.895238-36.571429z m80.457143 82.895239l-65.828571-39.009524 17.066666-12.190476c17.066667 9.752381 51.2 26.819048 51.2 26.819047s34.133333-14.628571 51.2-24.380952l14.628572 9.752381-68.266667 39.009524z" fill="#000000" p-id="2574"></path><path d="M738.742857 436.419048c7.314286-14.628571 9.752381-31.695238 12.190476-48.761905V112.152381l-21.942857-2.438095C629.028571 99.961905 560.761905 73.142857 524.190476 34.133333l-17.066666-19.504762-19.504762 17.066667c-43.885714 41.447619-117.028571 68.266667-212.114286 78.019048l-21.942857 2.438095 4.87619 275.504762c2.438095 17.066667 7.314286 36.571429 12.190476 53.638095l-226.742857 136.533333v163.352381l468.114286 268.190477 458.361905-273.066667 4.87619-2.438095v-160.914286l-236.495238-136.533333zM482.742857 870.4v63.390476l-387.657143-219.428571v-68.266667l387.657143 224.304762z m-39.009524-270.628571c17.066667 9.752381 34.133333 17.066667 51.2 24.380952l9.752381 4.87619 9.752381-4.87619c14.628571-7.314286 31.695238-14.628571 46.32381-24.380952l46.323809-26.819048c48.761905-29.257143 82.895238-63.390476 107.276191-95.085714l192.609524 112.152381L502.247619 828.952381 109.714286 597.333333l187.733333-114.590476c21.942857 31.695238 56.07619 63.390476 99.961905 90.209524l46.323809 26.819048z m58.514286-24.380953c-121.904762-56.07619-187.733333-119.466667-195.047619-190.171428l-4.87619-229.180953c85.333333-9.752381 153.6-36.571429 202.361904-73.142857 43.885714 36.571429 107.27619 60.952381 197.485715 73.142857v229.180953c-7.314286 65.828571-73.142857 129.219048-199.92381 190.171428z m426.666667 56.076191V707.047619l-397.409524 236.495238v-78.019047l397.409524-234.057143z" fill="#000000" p-id="2575"></path><path d="M485.180952 338.895238l-56.07619-48.761905-34.133333 34.133334 87.771428 80.457143 131.657143-112.152381-31.695238-36.571429z" fill="#000000" p-id="2576"></path></svg>