<?xml version="1.0" standalone="no"?><!DOCTYPE svg PUBLIC "-//W3C//DTD SVG 1.1//EN" "http://www.w3.org/Graphics/SVG/1.1/DTD/svg11.dtd"><svg t="1621302185396" class="icon" viewBox="0 0 1024 1024" version="1.1" xmlns="http://www.w3.org/2000/svg" p-id="12412" xmlns:xlink="http://www.w3.org/1999/xlink" width="200" height="200"><defs><style type="text/css"></style></defs><path d="M512 512m-512 0a512 512 0 1 0 1024 0 512 512 0 1 0-1024 0Z" fill="#3296FA" p-id="12413"></path><path d="M799.168 456.32c-1.28 5.312-4.48 13.12-8.96 22.592h0.128l-0.512 0.832c-25.984 54.784-93.824 162.176-93.824 162.176l-0.32-0.64-19.84 33.92h95.552l-182.528 239.104 41.408-162.624H555.072l26.112-107.52c-21.12 4.992-46.08 11.968-75.712 21.312 0 0-40 23.04-115.328-44.416 0 0-50.752-44.032-21.312-55.04 12.48-4.736 60.8-10.624 98.752-15.744A5663.296 5663.296 0 0 1 550.4 539.84s-158.208 2.368-195.776-3.456c-37.568-5.76-85.12-67.52-95.296-121.728 0 0-15.68-29.76 33.728-15.68 49.472 14.08 254.08 54.848 254.08 54.848s-266.112-80.32-283.84-99.84c-17.664-19.648-52.032-107.008-47.616-160.704 0 0 1.92-13.44 15.936-9.792 0 0 196.672 88.512 331.136 136.96 134.528 48.448 251.52 73.088 236.352 135.808z" fill="#FFFFFF" p-id="12414"></path></svg>