<?xml version="1.0" standalone="no"?><!DOCTYPE svg PUBLIC "-//W3C//DTD SVG 1.1//EN" "http://www.w3.org/Graphics/SVG/1.1/DTD/svg11.dtd"><svg t="1621301872132" class="icon" viewBox="0 0 1024 1024" version="1.1" xmlns="http://www.w3.org/2000/svg" p-id="10370" xmlns:xlink="http://www.w3.org/1999/xlink" width="200" height="200"><defs><style type="text/css"></style></defs><path d="M361.794139 513.304294c-0.099998 81.49868 65.898932 147.597609 147.397611 147.597609 81.49868 0.099998 147.597609-65.898932 147.597609-147.397612S590.890427 366.00668 509.491746 366.00668h-0.199997c-81.298683 0.399994-146.997618 66.098929-147.49761 147.297614z" fill="#1F80C4" p-id="10371"></path><path d="M509.19175 288.707933h465.292462C888.785601 111.410805 708.888515-0.887376 511.991705 0.01261 370.593996-0.987374 235.396186 57.511678 139.097746 161.010001l158.197437 277.495505c32.199478-89.49855 116.798108-149.39758 211.896567-149.797573z" fill="#D74115" p-id="10372"></path><path d="M553.791028 732.500743c-14.599763 3.199948-29.59952 5.099917-44.499279 5.599909-76.498761 0.399994-147.897604-38.399378-189.196935-102.698336l-233.996209-407.793394c-56.899078 83.29865-86.998591 182.09705-85.998607 282.995416 0 242.696068 171.097228 451.692682 408.993374 499.591906l-11.09982-5.59991 155.797476-272.095591z" fill="#138849" p-id="10373"></path><path d="M1001.683772 366.00668H678.989c35.299428 40.899337 54.999109 92.998493 55.599099 146.997619 0.499992 42.199316-11.09982 83.598646-33.299461 119.398065l-225.796342 388.793701c11.09982 0 24.299606 2.799955 36.499409 2.799955 281.695436 1.099982 510.891723-226.396332 511.991705-508.091768v-2.999952c0-49.799193-7.499878-99.39839-22.299638-146.89762z" fill="#EEE92E" p-id="10374"></path><path d="M361.794139 513.304294c-0.099998 81.49868 65.898932 147.597609 147.397611 147.597609 81.49868 0.099998 147.597609-65.898932 147.597609-147.397612S590.890427 366.00668 509.491746 366.00668h-0.199997c-81.298683 0.399994-146.997618 66.098929-147.49761 147.297614z" fill="#1F80C4" p-id="10375"></path><path d="M509.19175 288.707933h465.292462C888.785601 111.410805 708.888515-0.887376 511.991705 0.01261 370.593996-0.987374 235.396186 57.511678 139.097746 161.010001l158.197437 277.495505c32.199478-89.49855 116.798108-149.39758 211.896567-149.797573z" fill="#D74115" p-id="10376"></path><path d="M553.791028 732.500743c-14.599763 3.199948-29.59952 5.099917-44.499279 5.599909-76.498761 0.399994-147.897604-38.399378-189.196935-102.698336l-233.996209-407.793394c-56.899078 83.29865-86.998591 182.09705-85.998607 282.995416 0 242.696068 171.097228 451.692682 408.993374 499.591906l-11.09982-5.59991 155.797476-272.095591z" fill="#138849" p-id="10377"></path><path d="M1001.683772 366.00668H678.989c35.299428 40.899337 54.999109 92.998493 55.599099 146.997619 0.499992 42.199316-11.09982 83.598646-33.299461 119.398065l-225.796342 388.793701c11.09982 0 24.299606 2.799955 36.499409 2.799955 281.695436 1.099982 510.891723-226.396332 511.991705-508.091768v-2.999952c0-49.799193-7.499878-99.39839-22.299638-146.89762z" fill="#EEE92E" p-id="10378"></path></svg>