<?xml version="1.0" standalone="no"?><!DOCTYPE svg PUBLIC "-//W3C//DTD SVG 1.1//EN" "http://www.w3.org/Graphics/SVG/1.1/DTD/svg11.dtd"><svg t="1621301851078" class="icon" viewBox="0 0 1024 1024" version="1.1" xmlns="http://www.w3.org/2000/svg" p-id="9493" xmlns:xlink="http://www.w3.org/1999/xlink" width="200" height="200"><defs><style type="text/css"></style></defs><path d="M969.312812 228.916326C1064.049774-16.923573 880.015849 0.25842 880.015849 0.25842c-118.061952 0-265.638891 107.533956-265.638891 107.533956s-176.054928-47.435981-352.110856 59.033976C70.401181 289.106301 76.728179 506.276212 76.728179 506.276212c156.015936-223.487908 373.173847-314.151871 373.173846-314.151871v14.750994C129.438157 426.025245 53.536188 746.627114 34.551196 811.983087 15.586204 877.35506 28.228198 1024 163.180143 1024c134.930945 0 271.967888-108.685955 271.967889-108.685955s29.510988 6.318997 109.638955 6.318997c337.343862 0 417.470829-297.281878 417.470828-297.281878H662.842938s-21.083991 96.99296-128.593947 96.99296c-147.582939 0-139.169943-153.900937-139.169943-153.900937h571.367766c27.425989-396.381837-318.360869-453.310814-318.36087-453.310814S770.278894 27.690409 875.801851 27.690409c167.231931 0 88.163964 195.88892 88.163964 195.888919l5.346997 5.336998zM418.419038 910.919046s-205.912916 124.970949-298.354877 38.388985c-49.51098-86.600964 30.947987-209.223914 30.947987-209.223915s68.099972 126.259948 267.40689 170.83493z m247.694899-478.389803H394.361048s-3.442999-132.430946 139.310943-132.430946c137.856943 0 132.441946 132.430946 132.441946 132.430946z m0 0" fill="#2995CC" p-id="9494"></path></svg>