<svg width="90" height="159" viewBox="0 0 90 159" fill="none" xmlns="http://www.w3.org/2000/svg">
<path d="M78.7 138.8L81.4999 142.1L84.7999 137.2L82.9999 135.2L78.7 138.8Z" fill="#F6BD9D"/>
<path d="M80.7 142.2L83.7 144.5C83.7 144.5 78.2 150.4 80.9 152.5C81.9 153.3 91.5 145.7 89.6 142.1C88 139 85.4 136.4 85.4 136.4L80.7 142.2Z" fill="#676766"/>
<path d="M55.9 27.6C55.9 27.6 42.9 26.7 37.9 31C32.2 35.9 29.5 53.1 29.5 53.1L13.7 42.2L11.5 46.1C11.5 46.1 32.3 68.9 36.1 62.2C40.7 54.1 43.5 42.2 43.5 42.2C43.5 42.2 43.5 74.6 44 75.8C44.5 77 74.1 78.5 74.1 78.5V41L75.6 58.2L70.4 73.5L75.6 76.5L85.9 56.3C85.9 56.3 85.7 27.6 73.6 27.6C59.3 27.6 55.9 27.6 55.9 27.6Z" fill="#79A6F5"/>
<path d="M57.3 22.4999V27.2999C57.3 27.2999 59.9 29.4999 62.7 27.2999L63 19.3999C63 19.3999 56.3 20.6999 57.3 22.4999Z" fill="#F6BD9D"/>
<path d="M52.6998 11.5C52.6998 11.5 51.3998 24.3 59.2998 22.7C67.1998 21.1 65.4998 8.59997 65.4998 8.59997C65.4998 8.59997 52.5998 -1.00003 52.6998 11.5Z" fill="#FACAB6"/>
<path d="M52.6 9.79993C52.6 9.79993 57.5 12.0999 61.6 11.7999C61.6 11.7999 62.7001 16.2999 64.9001 16.8999C64.9001 16.8999 63.9001 20.0999 62.9001 20.4999C61.8001 20.8999 67.8 21.4999 68.8 12.0999C69.8 2.69995 61.8 0.999933 56 1.89993C50.2 2.79993 49.8 0.199951 49.8 0.199951C49.8 0.199951 47.2 8.19993 52.6 9.79993Z" fill="#303030"/>
<path d="M57.3 26.5L55 28.2C55 28.2 59.9 34.3 64.7 28.2L62.7 26.5H57.3Z" fill="#F7F7F7"/>
<path d="M44.0999 75.7C44.0999 75.7 36.7999 106.5 38.0999 109.5C39.3999 112.5 75.2999 138.6 77.9999 139.6C80.5999 140.6 84.5999 135.5 84.5999 135.5L49.7999 106.2L59.1999 83.2L60.6999 147.6L68.7999 146L74.0999 78.4999L44.0999 75.7Z" fill="#515151"/>
<path d="M61.7998 147.3V150.4L67.4998 148.9V146.2L61.7998 147.3Z" fill="#F6BD9D"/>
<path d="M61.2001 150L61.9001 153.7C61.9001 153.7 53.9 154.5 54.6 158C54.9 159.3 67.1001 159.7 68.0001 155.8C68.8001 152.4 68.5001 148.7 68.5001 148.7L61.2001 150Z" fill="#515151"/>
<path d="M71.1 72.8999C71.1 72.8999 66.1 77.2999 68.3 77.2999C70.3 77.2999 70.5 76.1999 70.5 76.1999C70.5 76.1999 67.4 83.5999 71.1 83.8999C74.9 84.1999 75.4001 75.3999 75.4001 75.3999L71.1 72.8999Z" fill="#FACAB6"/>
<path d="M11.4999 46C11.4999 46 -2.40007 42.7 1.69993 39.9C5.79993 37.1 10.0999 41.4 10.0999 41.4C10.0999 41.4 10.0999 37.3 11.4999 38C12.8999 38.7 13.3999 42.7 13.3999 42.7L11.4999 46Z" fill="#FACAB6"/>
<path d="M37.8999 58.7999C37.8999 58.7999 41.6999 43.1999 43.2999 40.2999L43.4999 42.0999C43.5999 42.0999 39.5999 55.3999 37.8999 58.7999Z" fill="#6C9BE9"/>
<path d="M74.0999 41L72.8999 63.3L70.3999 73.5L74.0999 62.6V41Z" fill="#6392DD"/>
<path d="M59.1 83.2L46.5 107.5L70.5 123.9L49.7 106.2L59.1 83.2Z" fill="#474646"/>
</svg>
