<?xml version="1.0" standalone="no"?><!DOCTYPE svg PUBLIC "-//W3C//DTD SVG 1.1//EN" "http://www.w3.org/Graphics/SVG/1.1/DTD/svg11.dtd"><svg t="1622620291704" class="icon" viewBox="0 0 1126 1024" version="1.1" xmlns="http://www.w3.org/2000/svg" p-id="3022" xmlns:xlink="http://www.w3.org/1999/xlink" width="219.921875" height="200"><defs><style type="text/css"></style></defs><path d="M1068.524 107.523v744.75C663.902 829.7 577.552 966.8 577.552 966.8h-28.868C413.579 833.718 57.712 852.272 57.712 852.272v-744.75H0v816.206C386.732 908.142 490.972 1024 490.972 1024h144.343c80.643-118.776 490.972-100.196 490.972-100.196V107.523h-57.737zM534.25 236.408l14.435-14.332h28.868l14.435 14.332v601.43l-14.435 14.358h-28.868l-14.435-14.358v-601.43z m14.435 687.396h28.868c259.92-138.431 433.184-114.553 433.184-114.553l14.434-14.332V7.25C786.26-38.766 563.22 150.416 563.22 150.416 336.008-38.51 101.194 7.25 101.194 7.25v787.592l14.434 14.332c276.095 9.853 433.184 114.554 433.184 114.554z m0 0" p-id="3023"></path></svg>