<svg xmlns="http://www.w3.org/2000/svg" xmlns:xlink="http://www.w3.org/1999/xlink" viewBox="0 0 456.01 262.12"><defs><style>.cls-1,.cls-2,.cls-22,.cls-23,.cls-24,.cls-25,.cls-28,.cls-29,.cls-3,.cls-4,.cls-5,.cls-6{fill:none;}.cls-1,.cls-2,.cls-22,.cls-23,.cls-24,.cls-25,.cls-28,.cls-29,.cls-3,.cls-30,.cls-4,.cls-5,.cls-6{stroke-miterlimit:10;}.cls-1,.cls-2,.cls-3,.cls-4,.cls-5,.cls-6{stroke-width:2px;}.cls-1{stroke:url(#未命名的渐变_26);}.cls-2{stroke:url(#未命名的渐变_26-2);}.cls-3{stroke:url(#未命名的渐变_26-3);}.cls-4{stroke:url(#未命名的渐变_26-4);}.cls-5{stroke:url(#未命名的渐变_26-5);}.cls-6{stroke:url(#未命名的渐变_26-6);}.cls-10,.cls-11,.cls-12,.cls-7,.cls-9{opacity:0.4;}.cls-7{fill:url(#未命名的渐变_26-7);}.cls-8{opacity:0.7;}.cls-9{fill:url(#未命名的渐变_26-8);}.cls-10{fill:url(#未命名的渐变_26-9);}.cls-11{fill:url(#未命名的渐变_26-10);}.cls-12{fill:url(#未命名的渐变_26-11);}.cls-13{fill:#8cd7ff;}.cls-14{fill:#40a8f5;}.cls-15{fill:#53b9f5;}.cls-16{fill:#40a0f5;}.cls-17{fill:#2d8ce9;}.cls-18{fill:#f0dabc;}.cls-19{fill:#398eed;}.cls-20{fill:#ffb056;}.cls-21{fill:#ffeed2;}.cls-22{stroke:#000;stroke-width:0.25px;}.cls-23{stroke:#3972d9;stroke-width:0.24px;}.cls-24{stroke:#e49056;stroke-width:0.29px;}.cls-25{stroke:#e98a87;stroke-width:0.23px;opacity:0.34;}.cls-26{fill:#e49056;}.cls-27{fill:#ebfcff;}.cls-28,.cls-30{stroke:#1da2ff;}.cls-28,.cls-29{stroke-width:0.11px;}.cls-29{stroke:#bc7a2b;}.cls-30{fill:#fff;stroke-width:0.06px;}.cls-31{fill:#e55c5c;opacity:0.2;}</style><linearGradient id="未命名的渐变_26" x1="1" y1="91.35" x2="1" y2="181.12" gradientUnits="userSpaceOnUse"><stop offset="0" stop-color="#81cfff"/><stop offset="1" stop-color="#5ecfff" stop-opacity="0"/></linearGradient><linearGradient id="未命名的渐变_26-2" x1="455.01" y1="72.11" x2="455.01" y2="161.88" xlink:href="#未命名的渐变_26"/><linearGradient id="未命名的渐变_26-3" x1="40.9" y1="143.88" x2="40.9" y2="199.51" xlink:href="#未命名的渐变_26"/><linearGradient id="未命名的渐变_26-4" x1="64.97" y1="95.36" x2="64.97" y2="123.17" xlink:href="#未命名的渐变_26"/><linearGradient id="未命名的渐变_26-5" x1="397.23" y1="104.2" x2="397.23" y2="132.02" xlink:href="#未命名的渐变_26"/><linearGradient id="未命名的渐变_26-6" x1="424.75" y1="133.49" x2="424.75" y2="189.13" xlink:href="#未命名的渐变_26"/><linearGradient id="未命名的渐变_26-7" x1="232.75" y1="224.43" x2="232.75" y2="262.12" xlink:href="#未命名的渐变_26"/><linearGradient id="未命名的渐变_26-8" x1="349.36" y1="26.68" x2="349.36" y2="204.03" xlink:href="#未命名的渐变_26"/><linearGradient id="未命名的渐变_26-9" x1="201.45" y1="55.61" x2="201.45" y2="204.03" xlink:href="#未命名的渐变_26"/><linearGradient id="未命名的渐变_26-10" x1="122.98" y1="26.68" x2="122.98" y2="204.03" xlink:href="#未命名的渐变_26"/><linearGradient id="未命名的渐变_26-11" x1="273.51" y1="0" x2="273.51" y2="209.54" xlink:href="#未命名的渐变_26"/></defs><title>图片加载失败</title><g id="图层_2" data-name="图层 2"><g id="图层_1-2" data-name="图层 1"><line class="cls-1" x1="1" y1="91.35" x2="1" y2="181.12"/><line class="cls-2" x1="455.01" y1="72.11" x2="455.01" y2="161.88"/><line class="cls-3" x1="40.9" y1="143.88" x2="40.9" y2="199.51"/><line class="cls-4" x1="64.97" y1="95.36" x2="64.97" y2="123.17"/><line class="cls-5" x1="397.23" y1="104.2" x2="397.23" y2="132.02"/><line class="cls-6" x1="424.75" y1="133.49" x2="424.75" y2="189.13"/><path class="cls-7" d="M412.28,262.12c-23-23-61-37.69-179.53-37.69S76.24,239.1,53.21,262.12Z"/><g class="cls-8"><path class="cls-9" d="M380.66,26.68H318.07a2.71,2.71,0,0,0-2.82,2.59V201.44a2.71,2.71,0,0,0,2.82,2.59h62.59a2.72,2.72,0,0,0,2.82-2.59V29.27A2.72,2.72,0,0,0,380.66,26.68ZM328.3,147a.9.9,0,0,1-.95.87h-3.6a.9.9,0,0,1-.95-.87V127.27a.91.91,0,0,1,.95-.87h3.6a.91.91,0,0,1,.95.87Zm0-30.23a.91.91,0,0,1-.95.87h-3.6a.91.91,0,0,1-.95-.87V97a.91.91,0,0,1,.95-.87h3.6a.91.91,0,0,1,.95.87Zm0-30.24a.91.91,0,0,1-.95.87h-3.6a.91.91,0,0,1-.95-.87V66.8a.91.91,0,0,1,.95-.87h3.6a.91.91,0,0,1,.95.87Zm0-30.24a.91.91,0,0,1-.95.87h-3.6a.91.91,0,0,1-.95-.87V36.56a.91.91,0,0,1,.95-.87h3.6a.91.91,0,0,1,.95.87ZM340,147a.9.9,0,0,1-.94.87h-3.61a.91.91,0,0,1-.95-.87V127.27a.92.92,0,0,1,.95-.87h3.61a.91.91,0,0,1,.94.87Zm0-30.23a.91.91,0,0,1-.94.87h-3.61a.92.92,0,0,1-.95-.87V97a.92.92,0,0,1,.95-.87h3.61A.91.91,0,0,1,340,97Zm0-30.24a.91.91,0,0,1-.94.87h-3.61a.92.92,0,0,1-.95-.87V66.8a.92.92,0,0,1,.95-.87h3.61a.91.91,0,0,1,.94.87Zm0-30.24a.91.91,0,0,1-.94.87h-3.61a.92.92,0,0,1-.95-.87V36.56a.92.92,0,0,1,.95-.87h3.61a.91.91,0,0,1,.94.87ZM351.7,147a.9.9,0,0,1-.94.87h-3.61a.9.9,0,0,1-.94-.87V127.27a.91.91,0,0,1,.94-.87h3.61a.91.91,0,0,1,.94.87Zm0-30.23a.91.91,0,0,1-.94.87h-3.61a.91.91,0,0,1-.94-.87V97a.91.91,0,0,1,.94-.87h3.61a.91.91,0,0,1,.94.87Zm0-30.24a.91.91,0,0,1-.94.87h-3.61a.91.91,0,0,1-.94-.87V66.8a.91.91,0,0,1,.94-.87h3.61a.91.91,0,0,1,.94.87Zm0-30.24a.91.91,0,0,1-.94.87h-3.61a.91.91,0,0,1-.94-.87V36.56a.91.91,0,0,1,.94-.87h3.61a.91.91,0,0,1,.94.87ZM363.4,147a.9.9,0,0,1-.94.87h-3.61a.9.9,0,0,1-.94-.87V127.27a.91.91,0,0,1,.94-.87h3.61a.91.91,0,0,1,.94.87Zm0-30.23a.91.91,0,0,1-.94.87h-3.61a.91.91,0,0,1-.94-.87V97a.91.91,0,0,1,.94-.87h3.61a.91.91,0,0,1,.94.87Zm0-30.24a.91.91,0,0,1-.94.87h-3.61a.91.91,0,0,1-.94-.87V66.8a.91.91,0,0,1,.94-.87h3.61a.91.91,0,0,1,.94.87Zm0-30.24a.91.91,0,0,1-.94.87h-3.61a.91.91,0,0,1-.94-.87V36.56a.91.91,0,0,1,.94-.87h3.61a.91.91,0,0,1,.94.87ZM375.11,147a.91.91,0,0,1-.95.87h-3.61a.9.9,0,0,1-.94-.87V127.27a.91.91,0,0,1,.94-.87h3.61a.92.92,0,0,1,.95.87Zm0-30.23a.92.92,0,0,1-.95.87h-3.61a.91.91,0,0,1-.94-.87V97a.91.91,0,0,1,.94-.87h3.61a.92.92,0,0,1,.95.87Zm0-30.24a.92.92,0,0,1-.95.87h-3.61a.91.91,0,0,1-.94-.87V66.8a.91.91,0,0,1,.94-.87h3.61a.92.92,0,0,1,.95.87Zm0-30.24a.92.92,0,0,1-.95.87h-3.61a.91.91,0,0,1-.94-.87V36.56a.91.91,0,0,1,.94-.87h3.61a.92.92,0,0,1,.95.87Z"/><path class="cls-10" d="M231.1,55.61H171.8A2.71,2.71,0,0,0,169,58.2V201.44A2.71,2.71,0,0,0,171.8,204h59.3a2.71,2.71,0,0,0,2.82-2.59V58.2A2.71,2.71,0,0,0,231.1,55.61ZM182.47,159.37a1.16,1.16,0,0,1-1.2,1.11h-5.4a1.16,1.16,0,0,1-1.2-1.11v-5.22a1.15,1.15,0,0,1,1.2-1.1h5.4a1.15,1.15,0,0,1,1.2,1.1Zm0-12.88a1.15,1.15,0,0,1-1.2,1.1h-5.4a1.15,1.15,0,0,1-1.2-1.1v-5.22a1.16,1.16,0,0,1,1.2-1.11h5.4a1.16,1.16,0,0,1,1.2,1.11Zm0-12.89a1.16,1.16,0,0,1-1.2,1.11h-5.4a1.16,1.16,0,0,1-1.2-1.11v-5.22a1.15,1.15,0,0,1,1.2-1.1h5.4a1.15,1.15,0,0,1,1.2,1.1Zm0-12.88a1.15,1.15,0,0,1-1.2,1.1h-5.4a1.15,1.15,0,0,1-1.2-1.1V115.5a1.16,1.16,0,0,1,1.2-1.11h5.4a1.16,1.16,0,0,1,1.2,1.11Zm0-12.89a1.16,1.16,0,0,1-1.2,1.11h-5.4a1.16,1.16,0,0,1-1.2-1.11v-5.21a1.15,1.15,0,0,1,1.2-1.11h5.4a1.15,1.15,0,0,1,1.2,1.11Zm0-12.88a1.15,1.15,0,0,1-1.2,1.1h-5.4a1.15,1.15,0,0,1-1.2-1.1V89.73a1.16,1.16,0,0,1,1.2-1.11h5.4a1.16,1.16,0,0,1,1.2,1.11Zm0-12.89a1.16,1.16,0,0,1-1.2,1.11h-5.4a1.16,1.16,0,0,1-1.2-1.11V76.85a1.15,1.15,0,0,1,1.2-1.11h5.4a1.15,1.15,0,0,1,1.2,1.11Zm0-12.88a1.15,1.15,0,0,1-1.2,1.1h-5.4a1.15,1.15,0,0,1-1.2-1.1V64a1.16,1.16,0,0,1,1.2-1.11h5.4a1.16,1.16,0,0,1,1.2,1.11Zm10.08,90.19a1.16,1.16,0,0,1-1.2,1.11H186a1.16,1.16,0,0,1-1.21-1.11v-5.22a1.16,1.16,0,0,1,1.21-1.1h5.4a1.15,1.15,0,0,1,1.2,1.1Zm0-12.88a1.15,1.15,0,0,1-1.2,1.1H186a1.16,1.16,0,0,1-1.21-1.1v-5.22a1.16,1.16,0,0,1,1.21-1.11h5.4a1.16,1.16,0,0,1,1.2,1.11Zm0-12.89a1.16,1.16,0,0,1-1.2,1.11H186a1.16,1.16,0,0,1-1.21-1.11v-5.22a1.16,1.16,0,0,1,1.21-1.1h5.4a1.15,1.15,0,0,1,1.2,1.1Zm0-12.88a1.15,1.15,0,0,1-1.2,1.1H186a1.16,1.16,0,0,1-1.21-1.1V115.5a1.16,1.16,0,0,1,1.21-1.11h5.4a1.16,1.16,0,0,1,1.2,1.11Zm0-12.89a1.16,1.16,0,0,1-1.2,1.11H186a1.16,1.16,0,0,1-1.21-1.11v-5.21a1.16,1.16,0,0,1,1.21-1.11h5.4a1.15,1.15,0,0,1,1.2,1.11Zm0-12.88a1.15,1.15,0,0,1-1.2,1.1H186a1.16,1.16,0,0,1-1.21-1.1V89.73A1.16,1.16,0,0,1,186,88.62h5.4a1.16,1.16,0,0,1,1.2,1.11Zm0-12.89a1.16,1.16,0,0,1-1.2,1.11H186a1.16,1.16,0,0,1-1.21-1.11V76.85A1.16,1.16,0,0,1,186,75.74h5.4a1.15,1.15,0,0,1,1.2,1.11Zm0-12.88a1.15,1.15,0,0,1-1.2,1.1H186a1.16,1.16,0,0,1-1.21-1.1V64A1.16,1.16,0,0,1,186,62.85h5.4a1.16,1.16,0,0,1,1.2,1.11Zm10.08,90.19a1.16,1.16,0,0,1-1.21,1.11H196a1.16,1.16,0,0,1-1.2-1.11v-5.22a1.15,1.15,0,0,1,1.2-1.1h5.4a1.16,1.16,0,0,1,1.21,1.1Zm0-12.88a1.16,1.16,0,0,1-1.21,1.1H196a1.15,1.15,0,0,1-1.2-1.1v-5.22a1.16,1.16,0,0,1,1.2-1.11h5.4a1.16,1.16,0,0,1,1.21,1.11Zm0-12.89a1.16,1.16,0,0,1-1.21,1.11H196a1.16,1.16,0,0,1-1.2-1.11v-5.22a1.15,1.15,0,0,1,1.2-1.1h5.4a1.16,1.16,0,0,1,1.21,1.1Zm0-12.88a1.16,1.16,0,0,1-1.21,1.1H196a1.15,1.15,0,0,1-1.2-1.1V115.5a1.16,1.16,0,0,1,1.2-1.11h5.4a1.16,1.16,0,0,1,1.21,1.11Zm0-12.89a1.16,1.16,0,0,1-1.21,1.11H196a1.16,1.16,0,0,1-1.2-1.11v-5.21a1.15,1.15,0,0,1,1.2-1.11h5.4a1.16,1.16,0,0,1,1.21,1.11Zm0-12.88a1.16,1.16,0,0,1-1.21,1.1H196a1.15,1.15,0,0,1-1.2-1.1V89.73a1.16,1.16,0,0,1,1.2-1.11h5.4a1.16,1.16,0,0,1,1.21,1.11Zm0-12.89a1.16,1.16,0,0,1-1.21,1.11H196a1.16,1.16,0,0,1-1.2-1.11V76.85a1.15,1.15,0,0,1,1.2-1.11h5.4a1.16,1.16,0,0,1,1.21,1.11Zm0-12.88a1.16,1.16,0,0,1-1.21,1.1H196a1.15,1.15,0,0,1-1.2-1.1V64a1.16,1.16,0,0,1,1.2-1.11h5.4A1.16,1.16,0,0,1,202.63,64Zm25.21,90.19a1.16,1.16,0,0,1-1.2,1.11H206.1a1.16,1.16,0,0,1-1.2-1.11v-5.22a1.15,1.15,0,0,1,1.2-1.1h20.54a1.15,1.15,0,0,1,1.2,1.1Zm0-12.88a1.15,1.15,0,0,1-1.2,1.1H206.1a1.15,1.15,0,0,1-1.2-1.1v-5.22a1.16,1.16,0,0,1,1.2-1.11h20.54a1.16,1.16,0,0,1,1.2,1.11Zm0-12.89a1.16,1.16,0,0,1-1.2,1.11H206.1a1.16,1.16,0,0,1-1.2-1.11v-5.22a1.15,1.15,0,0,1,1.2-1.1h20.54a1.15,1.15,0,0,1,1.2,1.1Zm0-12.88a1.15,1.15,0,0,1-1.2,1.1H206.1a1.15,1.15,0,0,1-1.2-1.1V115.5a1.16,1.16,0,0,1,1.2-1.11h20.54a1.16,1.16,0,0,1,1.2,1.11Zm0-12.89a1.16,1.16,0,0,1-1.2,1.11H206.1a1.16,1.16,0,0,1-1.2-1.11v-5.21a1.15,1.15,0,0,1,1.2-1.11h20.54a1.15,1.15,0,0,1,1.2,1.11Zm0-12.88a1.15,1.15,0,0,1-1.2,1.1H206.1a1.15,1.15,0,0,1-1.2-1.1V89.73a1.16,1.16,0,0,1,1.2-1.11h20.54a1.16,1.16,0,0,1,1.2,1.11Zm0-12.89a1.16,1.16,0,0,1-1.2,1.11H206.1a1.16,1.16,0,0,1-1.2-1.11V76.85a1.15,1.15,0,0,1,1.2-1.11h20.54a1.15,1.15,0,0,1,1.2,1.11Zm0-12.88a1.15,1.15,0,0,1-1.2,1.1H206.1a1.15,1.15,0,0,1-1.2-1.1V64a1.16,1.16,0,0,1,1.2-1.11h20.54a1.16,1.16,0,0,1,1.2,1.11Z"/><path class="cls-11" d="M161.13,26.68H84.83A2.71,2.71,0,0,0,82,29.27V201.44A2.71,2.71,0,0,0,84.83,204h76.3a2.71,2.71,0,0,0,2.82-2.59V29.27A2.71,2.71,0,0,0,161.13,26.68ZM154.34,161a1.16,1.16,0,0,1-1.2,1.11H92.83A1.16,1.16,0,0,1,91.62,161v-5.21a1.16,1.16,0,0,1,1.21-1.11h60.31a1.15,1.15,0,0,1,1.2,1.11Zm0-14.67a1.15,1.15,0,0,1-1.2,1.1H92.83a1.16,1.16,0,0,1-1.21-1.1v-5.22A1.16,1.16,0,0,1,92.83,140h60.31a1.16,1.16,0,0,1,1.2,1.11Zm0-14.68a1.16,1.16,0,0,1-1.2,1.11H92.83a1.16,1.16,0,0,1-1.21-1.11v-5.22a1.16,1.16,0,0,1,1.21-1.1h60.31a1.15,1.15,0,0,1,1.2,1.1Zm0-14.68a1.16,1.16,0,0,1-1.2,1.11H92.83a1.16,1.16,0,0,1-1.21-1.11v-5.21a1.16,1.16,0,0,1,1.21-1.11h60.31a1.15,1.15,0,0,1,1.2,1.11Zm0-14.67a1.15,1.15,0,0,1-1.2,1.1H92.83a1.16,1.16,0,0,1-1.21-1.1V97a1.16,1.16,0,0,1,1.21-1.11h60.31a1.16,1.16,0,0,1,1.2,1.11Zm0-14.68a1.16,1.16,0,0,1-1.2,1.11H92.83a1.16,1.16,0,0,1-1.21-1.11V82.35a1.16,1.16,0,0,1,1.21-1.1h60.31a1.15,1.15,0,0,1,1.2,1.1Zm0-14.68a1.16,1.16,0,0,1-1.2,1.11H92.83a1.16,1.16,0,0,1-1.21-1.11V67.68a1.16,1.16,0,0,1,1.21-1.11h60.31a1.15,1.15,0,0,1,1.2,1.11Zm0-14.67a1.15,1.15,0,0,1-1.2,1.1H92.83a1.16,1.16,0,0,1-1.21-1.1V53a1.16,1.16,0,0,1,1.21-1.11h60.31a1.16,1.16,0,0,1,1.2,1.11Zm0-14.68a1.16,1.16,0,0,1-1.2,1.11H92.83a1.16,1.16,0,0,1-1.21-1.11V38.32a1.16,1.16,0,0,1,1.21-1.1h60.31a1.15,1.15,0,0,1,1.2,1.1Z"/><path class="cls-12" d="M306.21,0H240.82a2.51,2.51,0,0,0-2.42,2.59V206.94a2.51,2.51,0,0,0,2.42,2.6h65.39a2.51,2.51,0,0,0,2.41-2.6V2.59A2.51,2.51,0,0,0,306.21,0Zm-5.82,134.28a1.06,1.06,0,0,1-1,1.1H247.67a1.06,1.06,0,0,1-1-1.1v-5.22a1.07,1.07,0,0,1,1-1.11h51.69a1.07,1.07,0,0,1,1,1.11Zm0-14.68a1.07,1.07,0,0,1-1,1.11H247.67a1.07,1.07,0,0,1-1-1.11v-5.22a1.06,1.06,0,0,1,1-1.1h51.69a1.06,1.06,0,0,1,1,1.1Zm0-14.68a1.07,1.07,0,0,1-1,1.11H247.67a1.07,1.07,0,0,1-1-1.11V99.71a1.07,1.07,0,0,1,1-1.11h51.69a1.07,1.07,0,0,1,1,1.11Zm0-14.67a1.06,1.06,0,0,1-1,1.1H247.67a1.06,1.06,0,0,1-1-1.1V85a1.07,1.07,0,0,1,1-1.11h51.69a1.07,1.07,0,0,1,1,1.11Zm0-14.68a1.07,1.07,0,0,1-1,1.11H247.67a1.07,1.07,0,0,1-1-1.11V70.35a1.06,1.06,0,0,1,1-1.1h51.69a1.06,1.06,0,0,1,1,1.1Zm0-14.68a1.07,1.07,0,0,1-1,1.11H247.67a1.07,1.07,0,0,1-1-1.11V55.68a1.07,1.07,0,0,1,1-1.11h51.69a1.07,1.07,0,0,1,1,1.11Zm0-14.67a1.06,1.06,0,0,1-1,1.1H247.67a1.06,1.06,0,0,1-1-1.1V41a1.07,1.07,0,0,1,1-1.11h51.69a1.07,1.07,0,0,1,1,1.11Zm0-14.68a1.07,1.07,0,0,1-1,1.11H247.67a1.07,1.07,0,0,1-1-1.11V26.32a1.06,1.06,0,0,1,1-1.1h51.69a1.06,1.06,0,0,1,1,1.1Zm0-14.68a1.07,1.07,0,0,1-1,1.11H247.67a1.07,1.07,0,0,1-1-1.11V11.65a1.07,1.07,0,0,1,1-1.11h51.69a1.07,1.07,0,0,1,1,1.11Z"/></g><polygon class="cls-13" points="186.18 126.83 157.09 163.61 157.09 90.76 186.18 126.83"/><polygon class="cls-13" points="239.32 131.53 251.98 145.27 233.05 157.24 215.74 136.25 239.32 131.53"/><path class="cls-13" d="M315.72,95.41v74.16l-43-29.82a10.52,10.52,0,0,0-11.61-.25l-5,3.17-13.54-19.95L201.2,128.3,176.4,87.22H307.54A8.19,8.19,0,0,1,315.72,95.41Zm-18.08,14.53A11.64,11.64,0,1,0,286,121.58,11.63,11.63,0,0,0,297.64,109.94Z"/><path class="cls-14" d="M315.72,169.57v22.67a8.19,8.19,0,0,1-8.18,8.19H268.68l-35.63-43.19,18.93-12,22.38,24.3-18.26-26.9,5-3.17a10.52,10.52,0,0,1,11.61.25Z"/><path class="cls-15" d="M233.05,157.24l35.63,43.19H165.28a8.19,8.19,0,0,1-8.19-8.19V163.61l29.09-36.78L196.84,140l18.9-3.79Z"/><polygon class="cls-16" points="203.29 136.37 245.81 128.08 239.33 131.62 215.73 136.22 196.81 139.91 203.29 136.37"/><path class="cls-14" d="M320.12,92.17v97.72c0,5-4.1,8.31-8.92,9.68a8.21,8.21,0,0,0,4.53-7.33V95.41a8.19,8.19,0,0,0-8.19-8.19H176.4l6.46-3.57H311.59A8.53,8.53,0,0,1,320.12,92.17Z"/><polygon class="cls-17" points="256.1 142.67 274.37 169.57 251.98 145.27 239.32 131.53 245.78 127.95 247.41 129.87 247.44 129.9 256.1 142.67"/><polygon class="cls-14" points="163.55 87.18 203.31 136.46 196.84 140.04 186.19 126.82 157.09 90.76 163.55 87.18"/><circle class="cls-15" cx="286" cy="109.94" r="11.64"/><path class="cls-18" d="M139.67,203.1a6.42,6.42,0,0,0-.18,1.44,14.55,14.55,0,0,0-3.14,0,3.21,3.21,0,0,0-.18-1.47,3.83,3.83,0,0,0,1.77.48A4.28,4.28,0,0,0,139.67,203.1Z"/><path class="cls-19" d="M147.18,238.68c-.21,0-5.06.55-9.84.62-4.05,0-8.05-.36-9.15-.4,3.64,1.76,6.49,3.29,6.49,3.29s-.76,1.94-1.44,3.57c-.05.11-.1.23-.14.34-2.47-.5-27.89-3.3-25.91-12.86.73-3.24,4.2-2.79,11.1-3.17,3.86-.22,7.82-.45,10.27-.64h0c.2.51,1.4,1.17,3.12,1.7.6,1.76,1,3,1.06,3.09l-1,.77h0c-.35.16-.59.33-.6.51a9.68,9.68,0,0,0,1.8,2.07.89.89,0,0,0,1-.18c.33.16,1,0,1-.41.23.11,1,0,1-.44a.58.58,0,0,0,.77-.46l-.28-.84a5.28,5.28,0,0,1,.62.49c.29.29.6.32.79,0,.18.28.49.25.78,0a5,5,0,0,1,.63-.49c-.14.38-.25.71-.29.84a.59.59,0,0,0,.78.46c0,.44.8.55,1,.44.07.41.71.57,1,.41a.89.89,0,0,0,1,.18,9.72,9.72,0,0,0,1.81-2.07c0-.18-.25-.35-.61-.51h0l-1-.77h0l1-3.09h0c1.72-.53,2.92-1.19,3.11-1.7h0c2.48.16,7.51-.56,11.37-.35,6.9.39,10.37-.06,11.1,3.18,2,9.55-23.36,11.66-25.91,12.8-.06-.22-.13-.45-.21-.68a28.18,28.18,0,0,0-1.37-3.17S144.33,240.1,147.18,238.68Z"/><path class="cls-20" d="M140.38,233.24l.34-1.37a21.62,21.62,0,0,1-2.81.19,22.4,22.4,0,0,1-2.78-.19l.34,1.36,0,.15-2.77.84c-.05-.12-.46-1.33-1.06-3.09-.71-2.11-1.69-5-2.63-7.83-1.46-4.36-2.83-8.49-3-9-.37-1.21-1.71-3.63-.78-5.47.37-.83,1.68-1.35,3.25-1.69h0c.28-.06,4.21-.91,5.67-1.19s1.13-.23,1.13-1.13a6.43,6.43,0,0,1,1-.23,14.55,14.55,0,0,1,3.14,0,7.46,7.46,0,0,1,1,.24c0,.91-.33.85,1.13,1.13s5.39,1.13,5.67,1.19h0c1.57.34,2.86.85,3.23,1.68.94,1.84-.41,4.26-.77,5.47-.17.55-1.54,4.68-3,9-.94,2.81-1.92,5.72-2.63,7.83l-1,3.09-2.77-.84Z"/><path class="cls-20" d="M147.28,229.43h0c-.19.51-1.39,1.17-3.11,1.7h0c.71-2.11,1.69-5,2.63-7.83C146.8,224.08,146.9,229.18,147.28,229.43Z"/><path class="cls-21" d="M140.86,237c-.23.11-1,0-1-.44a.59.59,0,0,1-.78-.46c0-.13.15-.46.29-.84a5.49,5.49,0,0,1,.7-1.55,20.32,20.32,0,0,1,2.73.81c.5.17,1,.33,1.34.49h0c.36.16.59.33.61.51a9.72,9.72,0,0,1-1.81,2.07.89.89,0,0,1-1-.18C141.57,237.55,140.93,237.39,140.86,237Z"/><path class="cls-18" d="M143.12,234.22l1,.77c-.36-.16-.84-.32-1.34-.49a20.32,20.32,0,0,0-2.73-.81,5.49,5.49,0,0,0-.7,1.55,5,5,0,0,0-.63.49c-.29.29-.6.32-.78,0a.87.87,0,0,0,.1-.24.47.47,0,0,0-.1-.31,12,12,0,0,1,2.45-2l0,.14,2.77.84Z"/><path class="cls-18" d="M143.63,244.38l-.38,1-.43.68-.95-.58-1.14-3.55,1.16-.87.37.15A28.18,28.18,0,0,1,143.63,244.38Z"/><path class="cls-21" d="M142.21,198.27a5,5,0,0,1,0,.67c0,.11,0,.22,0,.33a5,5,0,0,1-.09.66,4.64,4.64,0,0,1-2.49,3.34,4,4,0,0,1-3.49,0,4.64,4.64,0,0,1-2.46-3.32,4.91,4.91,0,0,1-.08-.67c0-.1,0-.21,0-.32a8,8,0,0,1-.09-.84c0-.22,0-1.24.09-1.45,0,.18.26.78.43.32,0,0,.66-1.66,1.34-1.77a3.39,3.39,0,0,0,1.27.73,5,5,0,0,0,1.84-.31,18.11,18.11,0,0,0,2,.38,2.32,2.32,0,0,1,1.62,1.61A4.81,4.81,0,0,1,142.21,198.27Z"/><path class="cls-19" d="M140.72,231.87l-.34,1.37a12,12,0,0,0-2.45,2,12.28,12.28,0,0,0-2.46-2l-.34-1.36a22.4,22.4,0,0,0,2.78.19A21.62,21.62,0,0,0,140.72,231.87Z"/><path class="cls-18" d="M138,235.53c0,.09-.06.17-.1.24-.19.28-.5.25-.79,0a5.28,5.28,0,0,0-.62-.49,5.81,5.81,0,0,0-.7-1.55,20.27,20.27,0,0,0-2.74.81c-.5.17-1,.33-1.34.49l1-.77,2.77-.84,0-.15a12.28,12.28,0,0,1,2.46,2A.57.57,0,0,1,138,235.53Z"/><path class="cls-18" d="M136,242.19l1,2.12-3.68,3.12.05-1.05c0-.08,0-.48-.12-.62.68-1.63,1.44-3.57,1.44-3.57Z"/><path class="cls-21" d="M136,236.54c0,.44-.8.55-1,.44-.07.41-.71.57-1,.41a.89.89,0,0,1-1,.18,9.68,9.68,0,0,1-1.8-2.07c0-.18.25-.35.6-.51h0c.36-.16.84-.32,1.34-.49a20.27,20.27,0,0,1,2.74-.81,5.81,5.81,0,0,1,.7,1.55l.28.84A.58.58,0,0,1,136,236.54Z"/><path class="cls-20" d="M128.56,229.43c.38-.23.48-5.35.49-6.13h0c.94,2.81,1.92,5.72,2.63,7.83-1.72-.53-2.92-1.19-3.12-1.7Z"/><path class="cls-22" d="M133.32,197.62a0,0,0,0,0,0,0"/><path class="cls-23" d="M134.68,242.19s-2.85-1.53-6.49-3.29c-4.91-2.38-11.23-5.17-13.92-5.19"/><path class="cls-23" d="M142.26,241.21s2.07-1.11,4.92-2.53c5-2.49,12.51-5.93,15.49-6"/><path class="cls-24" d="M130.1,211.85l5,20,.34,1.36,0,.15-2.77.84c-.05-.12-.46-1.33-1.06-3.09-.71-2.11-1.69-5-2.63-7.83-1.46-4.36-2.83-8.49-3-9-.37-1.21-1.71-3.63-.78-5.47.37-.83,1.68-1.35,3.25-1.69h0c.28-.06,4.21-.91,5.67-1.19s1.13-.23,1.13-1.13a6.43,6.43,0,0,1,1-.23,14.55,14.55,0,0,1,3.14,0,7.46,7.46,0,0,1,1,.24c0,.91-.33.85,1.13,1.13s5.39,1.13,5.67,1.19h0c1.57.34,2.86.85,3.23,1.68.94,1.84-.41,4.26-.77,5.47-.17.55-1.54,4.68-3,9-.94,2.81-1.92,5.72-2.63,7.83l-1,3.09-2.77-.84,0-.14.34-1.37,5-20"/><line class="cls-25" x1="132.33" y1="235.5" x2="133.96" y2="237.39"/><line class="cls-25" x1="133.67" y1="235.13" x2="135" y2="236.98"/><line class="cls-25" x1="134.98" y1="234.65" x2="136.03" y2="236.54"/><line class="cls-25" x1="143.53" y1="235.5" x2="141.89" y2="237.39"/><line class="cls-25" x1="142.19" y1="235.13" x2="140.86" y2="236.98"/><line class="cls-25" x1="140.88" y1="234.65" x2="139.83" y2="236.54"/><path class="cls-20" d="M143.79,245.68c.05.54.07,1.07.08,1.57h0a1.39,1.39,0,0,1,.65-1.11C144.38,245.72,144.1,245.58,143.79,245.68Z"/><path class="cls-26" d="M138.59,241.56a3.06,3.06,0,0,0-.22,3c.18.41.36.81.52,1.22a5.84,5.84,0,0,1,.15-2C138.59,243.59,138.52,242.05,138.59,241.56Z"/><path class="cls-26" d="M139.68,242.53c-.47-.21-.25-1.42-.27-1.76l-.22.15a2.46,2.46,0,0,0-.6.64h0c-.07.49,0,2,.45,2.21a4.62,4.62,0,0,1,.19-.6A1.93,1.93,0,0,1,139.68,242.53Z"/><path class="cls-26" d="M139.41,240.77c0,.34-.2,1.55.27,1.76.24-.23.49-.4.71-.6-.39-.15-.19-1.16-.18-1.45a2,2,0,0,0-.35.09A1.78,1.78,0,0,0,139.41,240.77Z"/><path class="cls-26" d="M140.21,240.48c0,.29-.21,1.3.18,1.45a1.42,1.42,0,0,0,.38-1.54h0A5,5,0,0,0,140.21,240.48Z"/><path class="cls-26" d="M142.93,245c0,.15,0,1.4.09,2.67l0,.69c0,1.41,0,2.8.61,3a39.91,39.91,0,0,0,.21-4.05c0-.5,0-1-.08-1.57A6.18,6.18,0,0,1,142.93,245Z"/><path class="cls-27" d="M139.19,240.92a2.51,2.51,0,0,0-1.88,2.88c.22,2.11.76,4.49.9,5.35s.22,5.37,2.58,7,2.43-.06,2.43-.06a.41.41,0,0,1-.24.18c-.87.15-3.73-2.29-3.47-4.89a9,9,0,0,0-.39-5c-.08-.2-.15-.39-.23-.58-.16-.41-.34-.81-.52-1.22a3.06,3.06,0,0,1,.22-3h0A2.46,2.46,0,0,1,139.19,240.92Z"/><path class="cls-20" d="M138.89,245.81c.08.19.15.38.23.58a9,9,0,0,1,.39,5c-.26,2.6,2.6,5,3.47,4.89a.41.41,0,0,0,.24-.18c.59-.83.41-4.26.44-4.81-.56-.15-.56-1.54-.61-3l0-.69c-.05-1.27-.1-2.52-.09-2.67-1.8-1.72-1.4-3.76-.51-4.17s.86-.83.44-1.14c-.32.57-1.19.59-2.09.71h0a1.42,1.42,0,0,1-.38,1.54c-.22.2-.47.37-.71.6a1.93,1.93,0,0,0-.45.64,4.62,4.62,0,0,0-.19.6A5.84,5.84,0,0,0,138.89,245.81Zm1.62,5.39c.32-.65,1.68,0,2,.16,0,.53.18,2.57.11,3.32C142,254.61,140.43,252,140.51,251.2Zm-.76-4.77c-.25-.53-.05-2.71.64-3.21-1,2.44,1.57,3,1.91,3.27a2.19,2.19,0,0,1,.22,1.19c0,.87,0,2,0,2.5a2.75,2.75,0,0,0-2.14-.55,8.51,8.51,0,0,0-.6-3.16S139.76,246.45,139.75,246.43Z"/><path class="cls-26" d="M140.51,251.2c-.08.76,1.46,3.41,2.09,3.48.07-.75-.1-2.79-.11-3.32C142.19,251.15,140.83,250.55,140.51,251.2Z"/><path class="cls-26" d="M140.39,243.22c-.69.5-.89,2.68-.64,3.21,0,0,0,0,0,0a8.51,8.51,0,0,1,.6,3.16,2.75,2.75,0,0,1,2.14.55c0-.51,0-1.63,0-2.5a2.19,2.19,0,0,0-.22-1.19C142,246.22,139.43,245.66,140.39,243.22Z"/><path class="cls-28" d="M139.19,240.92a2.51,2.51,0,0,0-1.88,2.88c.22,2.11.76,4.49.9,5.35s.22,5.37,2.58,7,2.43-.06,2.43-.06"/><path class="cls-29" d="M140.21,240.48c0,.29-.21,1.3.18,1.45"/><path class="cls-29" d="M139.41,240.77c0,.34-.2,1.55.27,1.76h0"/><path class="cls-29" d="M138.59,241.56h0c-.07.49,0,2,.45,2.21"/><path class="cls-30" d="M143.29,246a1.57,1.57,0,0,1,1.12.46c.17.16.39.48.16.69a1,1,0,0,1-.64.21c-.09,0-.12-.05-.11-.05a.24.24,0,0,1-.09-.28.26.26,0,0,1,.25-.15h.07s0,0,0,0-.05-.11-.06-.11l-.07-.06-.14-.09h0l0,0-.07,0a.76.76,0,0,0-.16-.06h-.05s0,0,0,0l-.08,0-.18,0a.24.24,0,0,1-.2-.24.23.23,0,0,1,.24-.2Z"/><path class="cls-30" d="M143.28,247.32c.17-.14.41-.06.6,0a1.85,1.85,0,0,1,.44.23.48.48,0,0,1,.22.56.52.52,0,0,1-.22.22.66.66,0,0,1-.26.11.23.23,0,0,1-.25-.13.24.24,0,0,1,.06-.28c.06-.06.14-.11.11-.13l-.06,0h0l0,0-.17-.08-.09,0-.08,0h-.14a.21.21,0,0,1-.18-.15.2.2,0,0,1,.07-.23Z"/><path class="cls-30" d="M143.37,248.71a1,1,0,0,1,.76.16c.24.17.5.53.25.81s-.43.34-.63.13a.23.23,0,0,1,.14-.38s0-.12,0-.13l-.05,0,0,0h-.07l-.07,0h-.06s0,0,0,0h-.2a.23.23,0,0,1-.26-.18.23.23,0,0,1,.18-.26Z"/><path class="cls-20" d="M133.14,246.65c-.1.53-.17,1.06-.23,1.56h0a1.38,1.38,0,0,0-.53-1.17C132.56,246.63,132.84,246.53,133.14,246.65Z"/><path class="cls-26" d="M138.73,243.06a3.06,3.06,0,0,1-.08,3l-.64,1.16a6,6,0,0,0,.06-2C138.53,245.08,138.75,243.56,138.73,243.06Z"/><path class="cls-26" d="M137.54,243.92c.5-.16.39-1.38.44-1.72a1.57,1.57,0,0,1,.21.17,2.71,2.71,0,0,1,.54.69h0c0,.5-.2,2-.66,2.16a6,6,0,0,0-.14-.61A1.78,1.78,0,0,0,137.54,243.92Z"/><path class="cls-26" d="M138,242.2c0,.34.06,1.56-.44,1.72-.21-.25-.45-.44-.64-.66.4-.12.3-1.14.32-1.43l.34.12A1.51,1.51,0,0,1,138,242.2Z"/><path class="cls-26" d="M137.22,241.83c0,.29.08,1.31-.32,1.43a1.43,1.43,0,0,1-.23-1.57h0C136.86,241.73,137,241.77,137.22,241.83Z"/><path class="cls-26" d="M134.07,246.06c0,.15-.18,1.38-.35,2.64,0,.23-.06.46-.1.68-.19,1.41-.32,2.79-.89,2.88a37.79,37.79,0,0,1,.18-4c.06-.5.13-1,.23-1.56A7.13,7.13,0,0,0,134.07,246.06Z"/><path class="cls-27" d="M138.19,242.37a2.5,2.5,0,0,1,1.59,3c-.43,2.08-1.19,4.39-1.42,5.24s-.74,5.32-3.26,6.72-2.41-.29-2.41-.29a.35.35,0,0,0,.22.2c.86.24,3.94-1.9,3.94-4.53a9,9,0,0,1,.88-4.94l.28-.56.64-1.16a3.06,3.06,0,0,0,.08-3h0A2.71,2.71,0,0,0,138.19,242.37Z"/><path class="cls-20" d="M138.07,245.22a6,6,0,0,0-.14-.61,1.78,1.78,0,0,0-.39-.69c-.21-.25-.45-.44-.64-.66a1.43,1.43,0,0,1-.23-1.57h0c-.88-.2-1.74-.31-2-.91-.45.28-.63.62.33,1.18s1,2.57-.92,4.11c0,.15-.18,1.38-.35,2.64,0,.23-.06.46-.1.68-.19,1.41-.32,2.79-.89,2.88,0,.55-.54,3.95,0,4.83a.35.35,0,0,0,.22.2c.86.24,3.94-1.9,3.94-4.53a9,9,0,0,1,.88-4.94l.28-.56A6,6,0,0,0,138.07,245.22Zm-4.62,10.5c0-.75.37-2.76.44-3.28.31-.19,1.72-.64,2,0C135.87,253.24,134.08,255.72,133.45,255.72Zm3.62-7.88a8.43,8.43,0,0,0-.91,3.08,2.72,2.72,0,0,0-2.18.34c.06-.51.12-1.62.23-2.49a2.28,2.28,0,0,1,.34-1.17c.37-.23,2.94-.54,2.22-3.06.64.57.62,2.76.32,3.26Z"/><path class="cls-26" d="M135.87,252.47c0,.77-1.79,3.25-2.42,3.25,0-.75.37-2.76.44-3.28C134.2,252.25,135.61,251.8,135.87,252.47Z"/><path class="cls-26" d="M136.77,244.54c.64.57.62,2.76.32,3.26l0,0a8.43,8.43,0,0,0-.91,3.08,2.72,2.72,0,0,0-2.18.34c.06-.51.12-1.62.23-2.49a2.28,2.28,0,0,1,.34-1.17C134.92,247.37,137.49,247.06,136.77,244.54Z"/><path class="cls-28" d="M138.19,242.37a2.5,2.5,0,0,1,1.59,3c-.43,2.08-1.19,4.39-1.42,5.24s-.74,5.32-3.26,6.72-2.41-.29-2.41-.29"/><path class="cls-29" d="M137.22,241.83c0,.29.08,1.31-.32,1.43"/><path class="cls-29" d="M138,242.2c0,.34.06,1.56-.44,1.72h0"/><path class="cls-29" d="M138.73,243.06h0c0,.5-.2,2-.66,2.16"/><path class="cls-30" d="M133.61,247a1.61,1.61,0,0,0-1.15.35c-.19.14-.44.44-.23.67a1,1,0,0,0,.61.27.42.42,0,0,0,.13,0,.25.25,0,0,0,.11-.28.26.26,0,0,0-.24-.17c-.06,0,0,0,0,0h-.05s-.05,0-.05,0a.11.11,0,0,1,.08-.11l.08,0,.15-.07s0,0,0,0l0,0,.08,0,.16,0h.3a.21.21,0,0,0,.22-.22c0-.13-.09-.2-.22-.22Z"/><path class="cls-30" d="M133.5,248.33a.61.61,0,0,0-.6,0,1.91,1.91,0,0,0-.47.18.5.5,0,0,0-.27.54.52.52,0,0,0,.2.24,1.16,1.16,0,0,0,.24.14.24.24,0,0,0,.23-.4c-.05-.06-.12-.12-.09-.13l.07,0h0l.05,0,.17-.06.1,0,.08,0s-.05,0,0,0h.14a.22.22,0,0,0,.2-.14.21.21,0,0,0,0-.24Z"/><path class="cls-30" d="M133.27,249.71a1,1,0,0,0-.77.09c-.26.14-.56.47-.34.77s.41.39.63.19a.23.23,0,0,0-.11-.38s0-.12,0-.13l.06,0,0,0h.07l.08,0H133s0,0,0,0h.19s0,0,0,0h0a.22.22,0,0,0,.27-.15.23.23,0,0,0-.15-.28Z"/><path class="cls-21" d="M133.75,197.64a0,0,0,0,1,0,0h0a3.5,3.5,0,0,0-.1.66,6.65,6.65,0,0,0,0,1h0a3.61,3.61,0,0,0,.15.65h0c-.12.38-1.53.24-1.6-1.21a1,1,0,0,1,.64-1.13A1.16,1.16,0,0,1,133.75,197.64Z"/><path class="cls-31" d="M133.69,199.31h0c-.05.16-.65.1-.68-.51a.45.45,0,0,1,.65-.47,3.64,3.64,0,0,0,0,.66A3.11,3.11,0,0,0,133.69,199.31Z"/><path class="cls-21" d="M142.05,197.64a0,0,0,0,0,0,0h0a3.5,3.5,0,0,1,.09.66,5.51,5.51,0,0,1,0,1h0a3.61,3.61,0,0,1-.15.65h0c.12.38,1.53.24,1.6-1.21a1,1,0,0,0-.64-1.13A1.12,1.12,0,0,0,142.05,197.64Z"/><path class="cls-31" d="M142.1,199.31h0c0,.16.65.1.68-.51a.45.45,0,0,0-.65-.47,3.64,3.64,0,0,1,0,.66A3.11,3.11,0,0,1,142.1,199.31Z"/><path d="M142.1,197.63c0,.94-.17,1.7-.45,1.76a4.31,4.31,0,0,0-.36-2.64l-.15.45c-.38-.73-2.13-1.29-2.45-1.42a4.7,4.7,0,0,1,.49,1.06,13.31,13.31,0,0,0-2.66-.91,1.3,1.3,0,0,0,.45.86c-1.16-.22-1.72-.81-1.72-.95-.87.76-.63,1.12-.85,1.94-.1-.37-.17-.7-.17-.7a8.31,8.31,0,0,0-.13,2.31,3.15,3.15,0,0,1-.45-1.78,1.39,1.39,0,0,0-.35-.06,1.35,1.35,0,0,0-.62.14c-.09-.18-.45-2.7.65-4.1,1-1.21,2.55-2.55,4.21-1.81a4.65,4.65,0,0,1,4.86,1.37c1.06,1,1.07,3.25.74,4.58A1.31,1.31,0,0,0,142.1,197.63Z"/></g></g></svg>