<?xml version="1.0" standalone="no"?><!DOCTYPE svg PUBLIC "-//W3C//DTD SVG 1.1//EN" "http://www.w3.org/Graphics/SVG/1.1/DTD/svg11.dtd"><svg t="1621301838233" class="icon" viewBox="0 0 1024 1024" version="1.1" xmlns="http://www.w3.org/2000/svg" p-id="8695" xmlns:xlink="http://www.w3.org/1999/xlink" width="200" height="200"><defs><style type="text/css"></style></defs><path d="M929 65.6H95.6c-16.5 0-30 13.5-30 30V929c0 16.5 13.5 30 30 30H929c16.5 0 30-13.5 30-30V95.6c0-16.5-13.5-30-30-30zM487 519.3c0 7.6-0.2 14.4-0.5 20.3-0.7 14.5-2 26.9-4 37.1-4.6 24.4-14.8 44.7-30.7 60.9-25.7 25.7-57.4 38.6-95 38.6-37.9 0-69.8-12.9-95.5-38.6-15.8-15.8-26.1-36.1-30.7-60.9-2-10.2-3.1-22.6-3.5-37.1-0.3-5.6-0.5-12.4-0.5-20.3v-44.5c0-7.9 0.2-14.7 0.5-20.3 0.3-14.5 1.5-26.9 3.5-37.1 4.6-24.7 14.8-45 30.7-60.9 25.7-25.7 57.6-38.6 95.5-38.6 37.6 0 69.3 12.9 95 38.6 15.8 16.2 26.1 36.5 30.7 60.9 2 10.2 3.3 22.6 4 37.1 0.3 5.9 0.5 12.7 0.5 20.3v44.5z m265.8 153.9L732 610.8H606.8l-21.3 62.4h-71.8l128.2-352.4h53.9l128.7 352.4h-71.7z" fill="#0690F9" p-id="8696"></path><path d="M400.9 398c-10.9-12.5-25.6-18.8-44-18.8-18.8 0-33.7 6.3-44.5 18.8-6.9 7.6-11.4 17.5-13.4 29.7-2.3 12.9-3.5 36-3.5 69.3s1.2 56.4 3.5 69.3c2 12.2 6.4 22.1 13.4 29.7 10.9 12.5 25.7 18.8 44.5 18.8 18.5 0 33.2-6.3 44-18.8 6.9-7.6 11.5-17.5 13.9-29.7 2.3-13.2 3.5-36.3 3.5-69.3s-1.2-56.1-3.5-69.3c-2.3-12.2-6.9-22.1-13.9-29.7zM626.1 552.9h87.6l-43.1-128.2z" fill="#0690F9" p-id="8697"></path><path d="M482.6 417.3c-4.6-24.4-14.8-44.7-30.7-60.9-25.7-25.7-57.4-38.6-95-38.6-37.9 0-69.8 12.9-95.5 38.6-15.8 15.8-26.1 36.1-30.7 60.9-2 10.2-3.1 22.6-3.5 37.1-0.3 5.6-0.5 12.4-0.5 20.3v44.5c0 7.9 0.2 14.7 0.5 20.3 0.3 14.5 1.5 26.9 3.5 37.1 4.6 24.7 14.8 45 30.7 60.9 25.7 25.7 57.6 38.6 95.5 38.6 37.6 0 69.3-12.9 95-38.6 15.8-16.2 26.1-36.5 30.7-60.9 2-10.2 3.3-22.6 4-37.1 0.3-5.9 0.5-12.7 0.5-20.3v-44.5c0-7.6-0.2-14.4-0.5-20.3-0.7-14.5-2-26.9-4-37.1z m-67.8 149c-2.3 12.2-6.9 22.1-13.9 29.7-10.9 12.5-25.6 18.8-44 18.8-18.8 0-33.7-6.3-44.5-18.8-6.9-7.6-11.4-17.5-13.4-29.7-2.3-12.9-3.5-36-3.5-69.3s1.2-56.4 3.5-69.3c2-12.2 6.4-22.1 13.4-29.7 10.9-12.5 25.7-18.8 44.5-18.8 18.5 0 33.2 6.3 44 18.8 6.9 7.6 11.5 17.5 13.9 29.7 2.3 13.2 3.5 36.3 3.5 69.3s-1.2 56.1-3.5 69.3zM641.9 320.8L513.8 673.2h71.8l21.3-62.4H732l20.8 62.4h71.8L695.9 320.8h-54z m-15.8 232.1l44.5-128.2 43.1 128.2h-87.6z" fill="#FFFFFF" p-id="8698"></path></svg>