<?xml version="1.0" standalone="no"?><!DOCTYPE svg PUBLIC "-//W3C//DTD SVG 1.1//EN" "http://www.w3.org/Graphics/SVG/1.1/DTD/svg11.dtd"><svg t="1625554954318" class="icon" viewBox="0 0 1024 1024" version="1.1" xmlns="http://www.w3.org/2000/svg" p-id="5077" xmlns:xlink="http://www.w3.org/1999/xlink" width="200" height="200"><defs><style type="text/css"></style></defs><path d="M721.1 1013.9c-94.9 0-297.4-103.6-458.8-271.3C93.8 567 30.5 457 13.1 304.4 5.2 231.6 40 154.1 97 116.1l53-35.6c22.1-15 48.3-22.9 75.1-22.9 42.7 0 83.1 20.6 108.4 54.6l95.7 128.9c36.4 48.3 33.2 116.3-7.9 161.4l-15.8 17.4c-12.7 13.4-14.2 34-4.7 49.8 16.6 28.5 37.2 54.6 60.9 77.5 25.3 24.5 60.9 53 106 83.9 7.1 4.7 15 7.1 23.7 7.1 11.1 0 22.1-4.7 30.1-12.7 19-19 40.3-34.8 63.3-46.7 9.5-4.7 19.8-7.1 30.9-7.1 45.1 0 108.4 38.8 209.6 130.5l15 14.2c53.8 49.8 58.5 134.5 9.5 189.1l-6.3 7.1c-31.6 34.8-59.3 57.7-83.9 70.4-51.4 26.9-67.2 30.9-124.2 30.9h-14.3z m-496-889.1c-13.4 0-26.1 4-37.2 11.1l-53.8 35.6c-30.1 20.6-59.3 71.2-53.8 124.2 15 131.3 68.8 227.8 212 379.7l18.2 19c142.4 147.9 329.9 250.8 409.8 250.8h6.3c47.5 0 57.7-1.6 88.6-16.6l14.2-7.1c14.2-7.9 32.4-22.9 53.8-44.3l10.3-11.1 6.3-7.1c24.5-26.9 22.1-69.6-4.7-94.1-54.6-50.6-100.5-86.2-134.5-106.8-15-9.5-27.7-15-38-18.2l-6.3-1.6-6.3 3.2-2.4 1.6c-11.1 6.3-22.1 14.2-31.6 22.9l-11.1 11.1c-19.8 18.2-45.9 28.5-73.6 28.5-22.1 0-43.5-6.3-61.7-19-48.3-33.2-87-63.3-115.5-91-27.7-26.9-51.4-57.7-72-91-25.3-41.9-20.6-94.1 11.9-129.7l15.8-17.4c19-21.4 20.6-53 3.2-75.9l-95.7-128.9c-10.3-17.6-30.8-27.9-52.2-27.9z m547.4 334.6c-16.6 0-30.1-11.9-33.2-27.7-12.7-68.8-57-117.1-119.4-129.7-8.7-1.6-16.6-7.1-21.4-14.2-4.7-7.9-7.1-16.6-4.7-25.3 3.2-15.8 17.4-26.9 33.2-26.9 2.4 0 4 0 6.3 0.8 89.4 17.4 155.8 87.8 172.4 183.5 1.6 8.7 0 18.2-5.5 25.3-5.5 7.1-12.7 12.7-22.1 14.2h-5.6zM978.2 438c-15.8 0-30.1-11.9-33.2-27.7-35.6-178.8-155-303.8-319.6-333-8.7-1.6-16.6-6.3-22.1-14.2-5.5-7.1-7.1-16.6-5.5-25.3C601 22 614.4 10.1 631 10.1c2.4 0 4 0 6.3 0.8 193.8 34 333.8 178.8 374.2 386 1.6 8.7 0 18.2-4.7 25.3-4.7 7.9-12.7 12.7-21.4 14.2-2.5 1.6-4.8 1.6-7.2 1.6z" p-id="5078"></path></svg>