<?xml version="1.0" standalone="no"?><!DOCTYPE svg PUBLIC "-//W3C//DTD SVG 1.1//EN" "http://www.w3.org/Graphics/SVG/1.1/DTD/svg11.dtd"><svg t="1621301819456" class="icon" viewBox="0 0 1024 1024" version="1.1" xmlns="http://www.w3.org/2000/svg" p-id="7865" xmlns:xlink="http://www.w3.org/1999/xlink" width="200" height="200"><defs><style type="text/css"></style></defs><path d="M208.182857-0.018286h472.612572L950.857143 273.060571v614.4C950.857143 962.56 890.093714 1024 815.817143 1024H208.182857C133.906286 1024 73.142857 962.56 73.142857 887.460571V136.521143C73.142857 61.421714 133.906286-0.018286 208.182857-0.018286z m202.532572 546.139429v-102.4h202.550857v136.539428H410.715429v-34.139428z m0 102.4h202.550857c40.521143 0 67.529143-27.300571 67.529143-68.260572v-136.539428c0-40.96-27.008-68.260571-67.529143-68.260572H410.715429c-40.502857 0-67.510857 27.300571-67.510858 68.260572V819.2c0 20.48 13.494857 34.121143 33.773715 34.121143 20.242286 0 33.737143-13.641143 33.737143-34.121143v-170.678857z" fill="#FFA438" p-id="7866"></path><path d="M680.795429-0.018286L950.857143 273.060571H748.306286c-40.502857 0-67.510857-27.318857-67.510857-68.278857v-204.8z" fill="#FFD099" p-id="7867"></path></svg>