<?xml version="1.0" standalone="no"?><!DOCTYPE svg PUBLIC "-//W3C//DTD SVG 1.1//EN" "http://www.w3.org/Graphics/SVG/1.1/DTD/svg11.dtd"><svg t="1620983821546" class="icon" viewBox="0 0 1024 1024" version="1.1" xmlns="http://www.w3.org/2000/svg" p-id="6069" xmlns:xlink="http://www.w3.org/1999/xlink" width="200" height="200"><defs><style type="text/css"></style></defs><path d="M181.333333 0h661.333334C942.933333 0 1024 83.136 1024 185.984v652.032C1024 940.864 942.933333 1024 842.666667 1024h-661.333334C81.066667 1024 0 940.864 0 838.016V185.984C0 83.136 81.066667 0 181.333333 0z" fill="#001E36" p-id="6070"></path><path d="M213.333333 286.805333v443.072c0 3.861333 1.706667 5.589333 5.12 5.589334h82.773334a5.333333 5.333333 0 0 0 4.693333-6.016v-138.218667c8.106667 0 14.08 0 18.346667 0.426667 4.266667 0.426667 11.093333 0.426667 21.333333 0.426666 34.986667 0 66.986667-3.882667 96-14.634666a146.346667 146.346667 0 0 0 68.693333-52.544c17.066667-24.106667 25.6-54.677333 25.6-91.712 0-19.370667-3.413333-37.888-9.813333-55.957334a137.066667 137.066667 0 0 0-31.146667-49.088 152.042667 152.042667 0 0 0-57.173333-35.306666c-23.893333-9.045333-52.906667-13.354667-87.893333-13.354667-12.8 0-25.6 0-38.826667 0.426667-6.378667 0.213333-12.565333 0.32-18.56 0.426666-6.421333 0.106667-12.608 0.213333-18.56 0.426667-5.589333 0.213333-10.965333 0.32-16.213333 0.426667-5.546667 0.106667-10.944 0.213333-16.213334 0.448-9.813333 0.426667-16.64 0.426667-23.893333 0.426666-2.986667 0-4.266667 1.728-4.266667 4.736z m93.013334 223.04v-144.682666c2.986667-0.426667 8.96-0.853333 17.493333-0.426667 8.106667-0.426667 17.92-0.426667 29.013333-0.426667 17.493333-0.426667 34.56 2.154667 50.346667 8.618667 12.373333 4.736 22.613333 13.333333 29.866667 24.533333 6.826667 11.626667 10.24 24.981333 9.813333 38.314667 0 18.965333-4.266667 33.6-13.226667 44.352-9.386667 10.773333-21.333333 18.944-34.986666 22.826667-15.786667 5.162667-32.426667 7.744-49.066667 7.744h-22.613333a213.674667 213.674667 0 0 1-16.64-0.853334z" fill="#31A8FF" p-id="6071"></path><path d="M802.133333 483.584a149.866667 149.866667 0 0 0-40.96-14.634667c-15.786667-3.456-31.573333-5.610667-47.786666-5.610666-8.533333-0.426667-17.493333 0.874667-25.6 3.029333-5.546667 1.28-10.24 4.288-13.226667 8.597333-2.133333 3.456-3.413333 7.744-3.413333 11.626667 0 3.882667 1.706667 7.744 4.266666 11.2 3.84 4.736 8.96 8.618667 14.506667 11.626667 9.813333 5.162667 20.053333 9.898667 30.293333 14.208 23.04 7.744 45.226667 18.517333 65.706667 31.424 14.08 9.045333 25.6 21.098667 33.706667 35.754666 6.826667 13.76 10.24 28.842667 9.813333 44.330667 0.426667 20.245333-5.546667 40.490667-16.64 57.28a107.093333 107.093333 0 0 1-47.786667 38.314667c-20.906667 9.045333-46.506667 13.781333-77.226666 13.781333-19.626667 0-38.826667-1.728-58.026667-5.589333-14.933333-2.581333-29.866667-7.317333-43.52-13.781334-2.986667-1.728-5.12-4.736-4.693333-8.192v-74.922666c0-1.28 0.426667-3.008 1.706666-3.861334 1.28-0.874667 2.56-0.426667 3.84 0.426667 16.64 9.898667 34.133333 16.789333 52.906667 21.098667 16.213333 4.309333 33.28 6.464 50.346667 6.464 16.213333 0 27.733333-2.154667 35.413333-6.037334a19.989333 19.989333 0 0 0 11.52-18.090666c0-6.016-3.413333-11.626667-10.24-17.216-6.826667-5.589333-20.906667-12.053333-41.813333-20.245334a259.477333 259.477333 0 0 1-60.586667-30.997333 111.146667 111.146667 0 0 1-32.426667-36.586667 93.141333 93.141333 0 0 1-9.813333-43.925333c0-18.517333 5.12-36.181333 14.506667-52.096a105.301333 105.301333 0 0 1 44.8-39.616c20.053333-10.346667 45.226667-15.082667 75.52-15.082667 17.493333 0 35.413333 1.301333 52.906666 3.882667 12.8 1.728 25.173333 5.162667 36.693334 9.898667 1.706667 0.426667 3.413333 2.154667 4.266666 3.882666 0.426667 1.728 0.853333 3.434667 0.853334 5.162667v70.186667a5.333333 5.333333 0 0 1-2.133334 4.309333c-3.84 0.853333-5.973333 0.853333-7.68 0z" fill="#31A8FF" p-id="6072"></path></svg>