<?xml version="1.0" standalone="no"?><!DOCTYPE svg PUBLIC "-//W3C//DTD SVG 1.1//EN" "http://www.w3.org/Graphics/SVG/1.1/DTD/svg11.dtd"><svg t="1620697382801" class="icon" viewBox="0 0 1024 1024" version="1.1" xmlns="http://www.w3.org/2000/svg" p-id="4466" xmlns:xlink="http://www.w3.org/1999/xlink" width="48" height="48"><defs><style type="text/css"></style></defs><path d="M481.28 982.357333H477.866667c-13.653333-1.365333-24.576-12.970667-25.941334-26.624L398.677333 266.24 314.026667 695.637333c-2.048 12.288-11.605333 21.162667-23.893334 23.210667-12.288 2.048-23.893333-4.096-30.037333-14.336L192.512 580.266667 88.746667 648.533333c-6.826667 4.778667-15.701333 6.144-23.210667 4.096l-32.085333-8.192c-15.701333-4.096-24.576-19.797333-20.48-35.498666 4.096-15.701333 19.797333-24.576 35.498666-20.48l19.797334 5.461333 118.784-78.506667c6.826667-4.778667 15.018667-6.144 23.210666-4.096 7.509333 2.048 14.336 6.826667 18.432 14.336L273.066667 606.208 382.976 47.786667c2.730667-14.336 15.701333-24.576 30.037333-23.210667 14.336 0.682667 25.941333 12.288 27.306667 26.624L498.346667 798.72l127.658666-415.744c3.413333-12.288 14.336-20.48 27.306667-20.48 14.336 1.365333 23.893333 7.509333 27.989333 19.797333l75.776 220.501334 16.384-34.133334c4.778667-10.24 15.701333-16.384 27.306667-16.384l186.368 9.557334c15.701333 0.682667 27.989333 14.336 27.306667 30.037333-0.682667 15.701333-15.701333 27.989333-30.72 27.306667l-167.253334-8.192-38.229333 80.554666c-4.778667 10.922667-15.701333 17.066667-27.989333 16.384-11.605333-0.682667-21.845333-8.192-25.941334-19.797333L654.677333 486.058667l-146.090666 475.818666c-3.413333 12.288-15.018667 20.48-27.306667 20.48z" p-id="4467" fill="#000000"></path></svg>