<?xml version="1.0" standalone="no"?><!DOCTYPE svg PUBLIC "-//W3C//DTD SVG 1.1//EN" "http://www.w3.org/Graphics/SVG/1.1/DTD/svg11.dtd"><svg t="1622621000359" class="icon" viewBox="0 0 1024 1024" version="1.1" xmlns="http://www.w3.org/2000/svg" p-id="17354" xmlns:xlink="http://www.w3.org/1999/xlink" width="200" height="200"><defs><style type="text/css"></style></defs><path d="M709.384828 0c60.274759 0 106.390069 46.11531 106.390069 106.390069v461.082483c0 60.310069-46.11531 106.425379-106.42538 106.425379H159.602759L0 780.288V106.390069C0 46.11531 46.11531 0 106.390069 0H709.384828zM132.978759 290.85131a53.21269 53.21269 0 1 0 53.177379 92.16 53.21269 53.21269 0 0 0-53.177379-92.16z m248.231724 0a53.21269 53.21269 0 1 0 53.248 92.16 53.21269 53.21269 0 0 0-53.21269-92.16z m248.302345 0a53.21269 53.21269 0 1 0 53.212689 92.16 53.21269 53.21269 0 0 0-53.212689-92.16z" p-id="17355"></path><path d="M886.713379 248.267034v354.692414a142.30069 142.30069 0 0 1-141.876965 141.876966H141.876966v35.451586c0 60.310069 46.11531 106.425379 106.390068 106.425379h585.233656l159.602758 106.390069v-638.411034c0-60.310069-46.11531-106.425379-106.390069-106.42538z" p-id="17356"></path></svg>