<?xml version="1.0" standalone="no"?><!DOCTYPE svg PUBLIC "-//W3C//DTD SVG 1.1//EN" "http://www.w3.org/Graphics/SVG/1.1/DTD/svg11.dtd"><svg t="1620613907057" class="icon" viewBox="0 0 1024 1024" version="1.1" xmlns="http://www.w3.org/2000/svg" p-id="4937" xmlns:xlink="http://www.w3.org/1999/xlink" width="48" height="48"><defs><style type="text/css"></style></defs><path d="M813.487033 624.64a699.820651 699.820651 0 0 1-288.506047 343.468651 32.386977 32.386977 0 0 1-32.720372-0.166698C280.221172 843.966512 142.981358 590.371721 142.981358 307.676279a23.813953 23.813953 0 0 0-47.627907 0c0 299.198512 145.812837 568.677209 372.807442 701.368558a80.133953 80.133953 0 0 0 81.253209-0.023814 747.662884 747.662884 0 0 0 308.438326-367.020651 23.813953 23.813953 0 0 0-44.341581-17.336558z" p-id="4938"></path><path d="M922.269172 307.390512v-100.018605a67.393488 67.393488 0 0 0-41.364837-62.797395L532.577637 4.596093a63.749953 63.749953 0 0 0-47.627907 0L136.956428 144.431628A67.631628 67.631628 0 0 0 95.258195 207.657674v99.732838a23.813953 23.813953 0 0 0 47.627907 0v-100.018605a20.003721 20.003721 0 0 1 12.192745-18.884465L502.71494 48.818605a16.169674 16.169674 0 0 1 12.073674 0L862.80573 188.606512a19.765581 19.765581 0 0 1 11.835535 18.432v100.328186a23.813953 23.813953 0 1 0 47.627907 0zM852.351405 400.074419v6.096372a35.72093 35.72093 0 0 0 71.44186 0V400.074419a35.72093 35.72093 0 0 0-71.44186 0z" p-id="4939"></path><path d="M307.821544 612.637767V218.326326a23.813953 23.813953 0 1 0-47.627907 0v418.125395a23.813953 23.813953 0 0 0 23.813954 23.813953h451.393488a23.813953 23.813953 0 0 0 0-47.627907H307.821544z" p-id="4940"></path><path d="M517.71773 470.420837a23.813953 23.813953 0 0 0 33.815814 1.14307l175.508837-165.721302c15.669581-14.788465 5.215256-41.126698-16.336372-41.126698h-104.043162a23.813953 23.813953 0 0 0 0 47.627907h44.127255l-114.44986 108.091535-43.198512-46.675349a23.813953 23.813953 0 0 0-34.220651-0.762047l-130.238512 128.595349a23.813953 23.813953 0 0 0 33.482419 33.91107l112.735256-111.330232 42.817488 46.246697z" p-id="4941"></path><path d="M686.91587 288.52986v104.043163a23.813953 23.813953 0 0 0 47.627907 0v-104.043163a23.813953 23.813953 0 0 0-47.627907 0z" p-id="4942"></path></svg>