<?xml version="1.0" standalone="no"?><!DOCTYPE svg PUBLIC "-//W3C//DTD SVG 1.1//EN" "http://www.w3.org/Graphics/SVG/1.1/DTD/svg11.dtd"><svg t="1620614523289" class="icon" viewBox="0 0 1024 1024" version="1.1" xmlns="http://www.w3.org/2000/svg" p-id="8287" xmlns:xlink="http://www.w3.org/1999/xlink" width="48" height="48"><defs><style type="text/css"></style></defs><path d="M386 960c-3 0-5.9-0.5-8.9-1.4-14.7-4.9-22.6-20.7-17.7-35.4L459.2 624H218c-10.9 0-20.7-6.3-25.4-16.1-4.6-9.8-3.1-21.4 3.9-29.8l420-504c10-11.9 27.6-13.4 39.4-3.6 11.9 9.9 13.5 27.6 3.6 39.5L277.8 568H498c9 0 17.4 4.3 22.7 11.6 5.3 7.3 6.7 16.7 3.9 25.2l-112 336c-4 11.8-14.9 19.2-26.6 19.2z" fill="" p-id="8288"></path><path d="M386 960c-6.3 0-12.7-2.1-17.9-6.5-11.9-9.9-13.5-27.6-3.6-39.5l381.7-458H526c-9 0-17.4-4.3-22.7-11.6-5.3-7.3-6.7-16.7-3.9-25.2l112-336c5-14.7 20.9-22.5 35.4-17.7 14.7 4.9 22.6 20.7 17.7 35.4L564.8 400H806c10.9 0 20.7 6.3 25.4 16.1 4.6 9.8 3.1 21.4-3.9 29.8l-420 504C402 956.6 394 960 386 960z" fill="" p-id="8289"></path></svg>