<?xml version="1.0" standalone="no"?><!DOCTYPE svg PUBLIC "-//W3C//DTD SVG 1.1//EN" "http://www.w3.org/Graphics/SVG/1.1/DTD/svg11.dtd"><svg t="1622621302944" class="icon" viewBox="0 0 1024 1024" version="1.1" xmlns="http://www.w3.org/2000/svg" p-id="32623" xmlns:xlink="http://www.w3.org/1999/xlink" width="200" height="200"><defs><style type="text/css"></style></defs><path d="M675.182 254.245L520.85 346.99a36.571 36.571 0 0 0-17.7 32.036l4.9 284.38a36.571 36.571 0 0 0 18.871 31.378l153.38 84.992 27.43 58.734a36.571 36.571 0 0 1-17.701 48.64L548.57 953.05a36.571 36.571 0 0 1-48.64-17.7L347.648 608.62c-136.485 23.114-265.07-26.184-314.222-131.656-49.225-105.546-4.388-235.74 101.084-325.413L209.48 312.32a36.571 36.571 0 0 0 48.64 17.7l141.385-65.974a36.571 36.571 0 0 0 17.7-48.567L342.237 54.71C478.72 31.598 607.231 80.896 656.456 186.368c10.167 21.797 16.311 44.617 18.725 67.877z m115.346-17.555l207.214 114.835a36.571 36.571 0 0 1 18.87 31.451l4.097 236.837a36.571 36.571 0 0 1-17.701 31.963L799.89 773.851a36.571 36.571 0 0 1-36.571 0.586L556.105 659.602a36.571 36.571 0 0 1-18.87-31.378l-4.024-236.91a36.571 36.571 0 0 1 17.701-31.963L754.03 237.349a36.571 36.571 0 0 1 36.571-0.659zM670.939 577.83l100.938 55.954a14.629 14.629 0 0 0 14.628-0.293l98.89-59.392a14.629 14.629 0 0 0 7.094-12.8l-2.048-115.42a14.629 14.629 0 0 0-7.534-12.507L781.97 377.417a14.629 14.629 0 0 0-14.628 0.22l-98.89 59.465a14.629 14.629 0 0 0-7.094 12.8l1.975 115.346a14.629 14.629 0 0 0 7.606 12.58z" p-id="32624"></path></svg>