<?xml version="1.0" standalone="no"?><!DOCTYPE svg PUBLIC "-//W3C//DTD SVG 1.1//EN" "http://www.w3.org/Graphics/SVG/1.1/DTD/svg11.dtd"><svg t="1622620888768" class="icon" viewBox="0 0 1024 1024" version="1.1" xmlns="http://www.w3.org/2000/svg" p-id="13193" xmlns:xlink="http://www.w3.org/1999/xlink" width="200" height="200"><defs><style type="text/css"></style></defs><path d="M496.64 855.04c5.12 5.12 11.264 8.192 19.456 8.192 15.36 0 26.624-12.288 27.648-27.648v-18.432l1.024-273.408c0-11.264 7.168-22.528 16.384-27.648l261.12-141.312c13.312-6.144 19.456-22.528 13.312-35.84-6.144-13.312-22.528-19.456-35.84-13.312-1.024 0-2.048 1.024-3.072 2.048L535.552 470.016c-7.168 4.096-13.312 8.192-18.432 14.336-5.12-5.12-11.264-10.24-18.432-14.336l-253.952-143.36c-13.312-6.144-29.696 0-35.84 13.312-6.144 12.288-1.024 26.624 9.216 33.792L471.04 516.096c10.24 6.144 16.384 16.384 16.384 27.648l1.024 291.84c1.024 8.192 4.096 15.36 8.192 19.456zM516.096 972.8c-15.36 0-29.696-4.096-43.008-11.264L148.48 773.12a86.4256 86.4256 0 0 1-43.008-74.752V324.608c0-30.72 16.384-59.392 43.008-74.752L473.088 62.464c25.6-15.36 59.392-15.36 86.016 0l324.608 187.392c26.624 15.36 43.008 44.032 43.008 74.752v374.784c0 30.72-16.384 59.392-43.008 74.752L560.128 961.536c-14.336 7.168-28.672 11.264-44.032 11.264z" p-id="13194"></path></svg>